ISO-10303-21;
HEADER;
/* Generated by software containing ST-Developer
 * from STEP Tools, Inc. (www.steptools.com) 
 */
/* OPTION: using custom renumber hook */

FILE_DESCRIPTION(
/* description */ ('STEP AP242 Edition 2',
'CAx-IF Rec.Pracs.---Representation and Presentation of Product Manufa
cturing Information (PMI)---4.0---2014-10-13',
'CAx-IF Rec.Pracs.---3D Tessellated Geometry---0.4---2014-09-14','2;1',
'CAx-IF Rec.Pracs.---User Defined Attributes---1.5---2016-08-15'),
/* implementation_level */ '2;1');

FILE_NAME(
/* name */ 'Part Studio 1',
/* time_stamp */ '2026-05-04T16:46:10Z',
/* author */ (''),
/* organization */ (''),
/* preprocessor_version */ 'ST-DEVELOPER v20',
/* originating_system */ 'ONSHAPE BY PTC INC, 1.214',
/* authorisation */ '  ');

FILE_SCHEMA (('AP242_MANAGED_MODEL_BASED_3D_ENGINEERING_MIM_LF { 1 0 10303 442 3 1 4 }'));
ENDSEC;

DATA;
#10=B_SPLINE_CURVE_WITH_KNOTS('',3,(#241,#242,#243,#244,#245,#246,#247,
#248,#249,#250,#251,#252,#253,#254,#255,#256,#257,#258,#259),
 .UNSPECIFIED.,.T.,.F.,(1,1,1,1,1,1,1,1,1,1,1,1,1,1,1,1,1,1,1,1,1,1,1),
(-0.0112278759199086,-0.00748525061327238,-0.00374262530663619,1.03548183139765E-18,
0.00374262530663619,0.00748525061327238,0.0112278759199086,0.0149705012265448,
0.018713126533181,0.0224557518398171,0.0261983771464533,0.0299410024530895,
0.0336836277597257,0.0374262530663619,0.0411688783729981,0.0449115036796343,
0.0486541289862705,0.0523967542929067,0.0561393795995429,0.0598820049061791,
0.0636246302128152,0.0673672555194514,0.0711098808260876),.UNSPECIFIED.);
#11=SHAPE_REPRESENTATION_RELATIONSHIP('','',#158,#15);
#12=SHAPE_REPRESENTATION_RELATIONSHIP('','',#159,#16);
#13=SHAPE_REPRESENTATION_RELATIONSHIP('','',#160,#17);
#14=SHAPE_REPRESENTATION_RELATIONSHIP('','',#161,#18);
#15=ADVANCED_BREP_SHAPE_REPRESENTATION('',(#150),#285);
#16=ADVANCED_BREP_SHAPE_REPRESENTATION('',(#151),#286);
#17=ADVANCED_BREP_SHAPE_REPRESENTATION('',(#152),#287);
#18=ADVANCED_BREP_SHAPE_REPRESENTATION('',(#153),#288);
#19=SPHERICAL_SURFACE('',#167,0.01);
#20=PLANE('',#166);
#21=PLANE('',#172);
#22=PLANE('',#177);
#23=PLANE('',#178);
#24=PLANE('',#183);
#25=PLANE('',#184);
#26=ORIENTED_EDGE('',*,*,#42,.T.);
#27=ORIENTED_EDGE('',*,*,#43,.F.);
#28=ORIENTED_EDGE('',*,*,#43,.T.);
#29=ORIENTED_EDGE('',*,*,#42,.F.);
#30=ORIENTED_EDGE('',*,*,#44,.F.);
#31=ORIENTED_EDGE('',*,*,#44,.T.);
#32=ORIENTED_EDGE('',*,*,#45,.F.);
#33=ORIENTED_EDGE('',*,*,#45,.T.);
#34=ORIENTED_EDGE('',*,*,#46,.F.);
#35=ORIENTED_EDGE('',*,*,#47,.T.);
#36=ORIENTED_EDGE('',*,*,#46,.T.);
#37=ORIENTED_EDGE('',*,*,#47,.F.);
#38=ORIENTED_EDGE('',*,*,#48,.T.);
#39=ORIENTED_EDGE('',*,*,#49,.F.);
#40=ORIENTED_EDGE('',*,*,#48,.F.);
#41=ORIENTED_EDGE('',*,*,#49,.T.);
#42=EDGE_CURVE('',#50,#50,#58,.T.);
#43=EDGE_CURVE('',#51,#51,#59,.T.);
#44=EDGE_CURVE('',#52,#52,#10,.T.);
#45=EDGE_CURVE('',#53,#53,#60,.T.);
#46=EDGE_CURVE('',#54,#54,#61,.T.);
#47=EDGE_CURVE('',#55,#55,#62,.T.);
#48=EDGE_CURVE('',#56,#56,#63,.T.);
#49=EDGE_CURVE('',#57,#57,#64,.T.);
#50=VERTEX_POINT('',#234);
#51=VERTEX_POINT('',#236);
#52=VERTEX_POINT('',#260);
#53=VERTEX_POINT('',#263);
#54=VERTEX_POINT('',#268);
#55=VERTEX_POINT('',#270);
#56=VERTEX_POINT('',#276);
#57=VERTEX_POINT('',#278);
#58=CIRCLE('',#164,0.01);
#59=CIRCLE('',#165,0.01);
#60=CIRCLE('',#171,0.00955);
#61=CIRCLE('',#175,0.00955);
#62=CIRCLE('',#176,0.00955);
#63=CIRCLE('',#181,0.0445);
#64=CIRCLE('',#182,0.0445);
#65=EDGE_LOOP('',(#26));
#66=EDGE_LOOP('',(#27));
#67=EDGE_LOOP('',(#28));
#68=EDGE_LOOP('',(#29));
#69=EDGE_LOOP('',(#30));
#70=EDGE_LOOP('',(#31));
#71=EDGE_LOOP('',(#32));
#72=EDGE_LOOP('',(#33));
#73=EDGE_LOOP('',(#34));
#74=EDGE_LOOP('',(#35));
#75=EDGE_LOOP('',(#36));
#76=EDGE_LOOP('',(#37));
#77=EDGE_LOOP('',(#38));
#78=EDGE_LOOP('',(#39));
#79=EDGE_LOOP('',(#40));
#80=EDGE_LOOP('',(#41));
#81=FACE_BOUND('',#65,.T.);
#82=FACE_BOUND('',#66,.T.);
#83=FACE_BOUND('',#67,.T.);
#84=FACE_BOUND('',#68,.T.);
#85=FACE_BOUND('',#69,.T.);
#86=FACE_BOUND('',#70,.T.);
#87=FACE_BOUND('',#71,.T.);
#88=FACE_BOUND('',#72,.T.);
#89=FACE_BOUND('',#73,.T.);
#90=FACE_BOUND('',#74,.T.);
#91=FACE_BOUND('',#75,.T.);
#92=FACE_BOUND('',#76,.T.);
#93=FACE_BOUND('',#77,.T.);
#94=FACE_BOUND('',#78,.T.);
#95=FACE_BOUND('',#79,.T.);
#96=FACE_BOUND('',#80,.T.);
#97=CYLINDRICAL_SURFACE('',#163,0.01);
#98=CYLINDRICAL_SURFACE('',#169,0.0445);
#99=CYLINDRICAL_SURFACE('',#170,0.00955);
#100=CYLINDRICAL_SURFACE('',#174,0.00955);
#101=CYLINDRICAL_SURFACE('',#180,0.0445);
#102=ADVANCED_FACE('',(#81,#82),#97,.T.);
#103=ADVANCED_FACE('',(#83),#20,.T.);
#104=ADVANCED_FACE('',(#84),#19,.T.);
#105=ADVANCED_FACE('',(#85),#98,.F.);
#106=ADVANCED_FACE('',(#86,#87),#99,.T.);
#107=ADVANCED_FACE('',(#88),#21,.T.);
#108=ADVANCED_FACE('',(#89,#90),#100,.T.);
#109=ADVANCED_FACE('',(#91),#22,.T.);
#110=ADVANCED_FACE('',(#92),#23,.F.);
#111=ADVANCED_FACE('',(#93,#94),#101,.T.);
#112=ADVANCED_FACE('',(#95),#24,.F.);
#113=ADVANCED_FACE('',(#96),#25,.T.);
#114=CLOSED_SHELL('',(#102,#103,#104));
#115=CLOSED_SHELL('',(#105,#106,#107));
#116=CLOSED_SHELL('',(#108,#109,#110));
#117=CLOSED_SHELL('',(#111,#112,#113));
#118=STYLED_ITEM('',(#122),#150);
#119=STYLED_ITEM('',(#123),#151);
#120=STYLED_ITEM('',(#124),#152);
#121=STYLED_ITEM('',(#125),#153);
#122=PRESENTATION_STYLE_ASSIGNMENT((#126));
#123=PRESENTATION_STYLE_ASSIGNMENT((#127));
#124=PRESENTATION_STYLE_ASSIGNMENT((#128));
#125=PRESENTATION_STYLE_ASSIGNMENT((#129));
#126=SURFACE_STYLE_USAGE(.BOTH.,#130);
#127=SURFACE_STYLE_USAGE(.BOTH.,#131);
#128=SURFACE_STYLE_USAGE(.BOTH.,#132);
#129=SURFACE_STYLE_USAGE(.BOTH.,#133);
#130=SURFACE_SIDE_STYLE('',(#134));
#131=SURFACE_SIDE_STYLE('',(#135));
#132=SURFACE_SIDE_STYLE('',(#136));
#133=SURFACE_SIDE_STYLE('',(#137));
#134=SURFACE_STYLE_FILL_AREA(#138);
#135=SURFACE_STYLE_FILL_AREA(#139);
#136=SURFACE_STYLE_FILL_AREA(#140);
#137=SURFACE_STYLE_FILL_AREA(#141);
#138=FILL_AREA_STYLE('',(#142));
#139=FILL_AREA_STYLE('',(#143));
#140=FILL_AREA_STYLE('',(#144));
#141=FILL_AREA_STYLE('',(#145));
#142=FILL_AREA_STYLE_COLOUR('',#146);
#143=FILL_AREA_STYLE_COLOUR('',#147);
#144=FILL_AREA_STYLE_COLOUR('',#148);
#145=FILL_AREA_STYLE_COLOUR('',#149);
#146=COLOUR_RGB('',0.647058823529412,0.647058823529412,0.647058823529412);
#147=COLOUR_RGB('',0.917647058823529,0.917647058823529,0.917647058823529);
#148=COLOUR_RGB('',0.231372549019608,0.380392156862745,0.705882352941177);
#149=COLOUR_RGB('',0.615686274509804,0.811764705882353,0.929411764705882);
#150=MANIFOLD_SOLID_BREP('lamp',#114);
#151=MANIFOLD_SOLID_BREP('outlet_pipe',#115);
#152=MANIFOLD_SOLID_BREP('inlet_pipe',#116);
#153=MANIFOLD_SOLID_BREP('reactor_body',#117);
#154=SHAPE_DEFINITION_REPRESENTATION(#305,#158);
#155=SHAPE_DEFINITION_REPRESENTATION(#306,#159);
#156=SHAPE_DEFINITION_REPRESENTATION(#307,#160);
#157=SHAPE_DEFINITION_REPRESENTATION(#308,#161);
#158=SHAPE_REPRESENTATION('lamp',(#162),#285);
#159=SHAPE_REPRESENTATION('outlet_pipe',(#168),#286);
#160=SHAPE_REPRESENTATION('inlet_pipe',(#173),#287);
#161=SHAPE_REPRESENTATION('reactor_body',(#179),#288);
#162=AXIS2_PLACEMENT_3D('',#231,#185,#186);
#163=AXIS2_PLACEMENT_3D('',#232,#187,#188);
#164=AXIS2_PLACEMENT_3D('',#233,#189,#190);
#165=AXIS2_PLACEMENT_3D('',#235,#191,#192);
#166=AXIS2_PLACEMENT_3D('',#237,#193,#194);
#167=AXIS2_PLACEMENT_3D('',#238,#195,#196);
#168=AXIS2_PLACEMENT_3D('',#239,#197,#198);
#169=AXIS2_PLACEMENT_3D('',#240,#199,#200);
#170=AXIS2_PLACEMENT_3D('',#261,#201,#202);
#171=AXIS2_PLACEMENT_3D('',#262,#203,#204);
#172=AXIS2_PLACEMENT_3D('',#264,#205,#206);
#173=AXIS2_PLACEMENT_3D('',#265,#207,#208);
#174=AXIS2_PLACEMENT_3D('',#266,#209,#210);
#175=AXIS2_PLACEMENT_3D('',#267,#211,#212);
#176=AXIS2_PLACEMENT_3D('',#269,#213,#214);
#177=AXIS2_PLACEMENT_3D('',#271,#215,#216);
#178=AXIS2_PLACEMENT_3D('',#272,#217,#218);
#179=AXIS2_PLACEMENT_3D('',#273,#219,#220);
#180=AXIS2_PLACEMENT_3D('',#274,#221,#222);
#181=AXIS2_PLACEMENT_3D('',#275,#223,#224);
#182=AXIS2_PLACEMENT_3D('',#277,#225,#226);
#183=AXIS2_PLACEMENT_3D('',#279,#227,#228);
#184=AXIS2_PLACEMENT_3D('',#280,#229,#230);
#185=DIRECTION('',(0.,0.,1.));
#186=DIRECTION('',(1.,0.,0.));
#187=DIRECTION('',(0.,-1.,0.));
#188=DIRECTION('',(0.,0.,-1.));
#189=DIRECTION('',(0.,-1.,0.));
#190=DIRECTION('',(0.,0.,-1.));
#191=DIRECTION('',(0.,-1.,0.));
#192=DIRECTION('',(0.,0.,-1.));
#193=DIRECTION('',(0.,-1.,0.));
#194=DIRECTION('',(1.,0.,0.));
#195=DIRECTION('',(0.,-1.,0.));
#196=DIRECTION('',(0.,0.,-1.));
#197=DIRECTION('',(0.,0.,1.));
#198=DIRECTION('',(1.,0.,0.));
#199=DIRECTION('',(0.,-1.,0.));
#200=DIRECTION('',(0.,0.,-1.));
#201=DIRECTION('',(0.,0.,-1.));
#202=DIRECTION('',(-1.,0.,0.));
#203=DIRECTION('',(0.,0.,1.));
#204=DIRECTION('',(1.,0.,0.));
#205=DIRECTION('',(0.,0.,1.));
#206=DIRECTION('',(1.,0.,0.));
#207=DIRECTION('',(0.,0.,1.));
#208=DIRECTION('',(1.,0.,0.));
#209=DIRECTION('',(0.,-1.,0.));
#210=DIRECTION('',(0.,0.,-1.));
#211=DIRECTION('',(0.,1.,0.));
#212=DIRECTION('',(0.,0.,1.));
#213=DIRECTION('',(0.,1.,0.));
#214=DIRECTION('',(0.,0.,1.));
#215=DIRECTION('',(0.,1.,0.));
#216=DIRECTION('',(-1.,0.,0.));
#217=DIRECTION('',(0.,1.,0.));
#218=DIRECTION('',(-1.,0.,0.));
#219=DIRECTION('',(0.,0.,1.));
#220=DIRECTION('',(1.,0.,0.));
#221=DIRECTION('',(0.,-1.,0.));
#222=DIRECTION('',(0.,0.,-1.));
#223=DIRECTION('',(0.,-1.,0.));
#224=DIRECTION('',(0.,0.,-1.));
#225=DIRECTION('',(0.,-1.,0.));
#226=DIRECTION('',(0.,0.,-1.));
#227=DIRECTION('',(0.,-1.,0.));
#228=DIRECTION('',(1.,0.,0.));
#229=DIRECTION('',(0.,-1.,0.));
#230=DIRECTION('',(1.,0.,0.));
#231=CARTESIAN_POINT('',(0.,0.,0.));
#232=CARTESIAN_POINT('',(0.,0.81,6.12323399573677E-19));
#233=CARTESIAN_POINT('',(0.,0.8,6.12323399573677E-19));
#234=CARTESIAN_POINT('',(0.,0.8,-0.01));
#235=CARTESIAN_POINT('',(0.,0.,6.12323399573677E-19));
#236=CARTESIAN_POINT('',(0.,0.,-0.01));
#237=CARTESIAN_POINT('',(0.,0.,0.));
#238=CARTESIAN_POINT('',(0.,0.8,6.12323399573677E-19));
#239=CARTESIAN_POINT('',(0.,0.,0.));
#240=CARTESIAN_POINT('',(0.,0.889,2.72483912810286E-18));
#241=CARTESIAN_POINT('',(-0.00377385793414457,0.0386064499452609,0.0443873556682653));
#242=CARTESIAN_POINT('',(2.97243943776234E-6,0.0378477004833962,0.0445561300271188));
#243=CARTESIAN_POINT('',(0.00376196817639352,0.0386027481211543,0.0443881242232595));
#244=CARTESIAN_POINT('',(0.00692865175789017,0.0407244692967694,0.043985156765023));
#245=CARTESIAN_POINT('',(0.00904721819100543,0.0438887320338389,0.0435780924485955));
#246=CARTESIAN_POINT('',(0.00980023049381629,0.0476433141979378,0.0434059529820319));
#247=CARTESIAN_POINT('',(0.00905184934400824,0.0514033395442849,0.0435771423316386));
#248=CARTESIAN_POINT('',(0.00692819636483492,0.0545770576450223,0.0439853028969238));
#249=CARTESIAN_POINT('',(0.00376015336699041,0.0566980774148133,0.044388337060166));
#250=CARTESIAN_POINT('',(4.12748929101397E-6,0.0574501945366883,0.0445556742912716));
#251=CARTESIAN_POINT('',(-0.00375309993182606,0.0567011395934641,0.0443889647349845));
#252=CARTESIAN_POINT('',(-0.00692130786984679,0.0545827906317556,0.0439863688956073));
#253=CARTESIAN_POINT('',(-0.0090450836110275,0.0514186918024375,0.0435786004898511));
#254=CARTESIAN_POINT('',(-0.00980103099421154,0.0476560097214592,0.0434057578309367));
#255=CARTESIAN_POINT('',(-0.00905078002355356,0.0438949486201909,0.0435774153119911));
#256=CARTESIAN_POINT('',(-0.00693055046800887,0.0407277564529062,0.0439846332159564));
#257=CARTESIAN_POINT('',(-0.00377385793414457,0.0386064499452609,0.0443873556682653));
#258=CARTESIAN_POINT('',(2.97243943776234E-6,0.0378477004833962,0.0445561300271188));
#259=CARTESIAN_POINT('',(0.00376196817639352,0.0386027481211543,0.0443881242232595));
#260=CARTESIAN_POINT('',(1.06598061386056E-18,0.0381,0.0445));
#261=CARTESIAN_POINT('',(0.,0.04765,0.8945));
#262=CARTESIAN_POINT('',(0.,0.04765,0.8945));
#263=CARTESIAN_POINT('',(0.00955,0.04765,0.8945));
#264=CARTESIAN_POINT('',(0.,0.0286,0.8945));
#265=CARTESIAN_POINT('',(0.,0.,0.));
#266=CARTESIAN_POINT('',(0.,1.739,5.84768846592861E-19));
#267=CARTESIAN_POINT('',(0.,1.739,5.84768846592861E-19));
#268=CARTESIAN_POINT('',(0.,1.739,0.00955));
#269=CARTESIAN_POINT('',(0.,0.889,5.84768846592861E-19));
#270=CARTESIAN_POINT('',(0.,0.889,0.00955));
#271=CARTESIAN_POINT('',(0.,1.739,0.));
#272=CARTESIAN_POINT('',(0.,0.889,0.));
#273=CARTESIAN_POINT('',(0.,0.,0.));
#274=CARTESIAN_POINT('',(0.,0.889,2.72483912810286E-18));
#275=CARTESIAN_POINT('',(0.,0.889,2.72483912810286E-18));
#276=CARTESIAN_POINT('',(0.,0.889,-0.0445));
#277=CARTESIAN_POINT('',(0.,0.,2.72483912810286E-18));
#278=CARTESIAN_POINT('',(0.,0.,-0.0445));
#279=CARTESIAN_POINT('',(0.,0.889,0.));
#280=CARTESIAN_POINT('',(0.,0.,0.));
#281=MECHANICAL_DESIGN_GEOMETRIC_PRESENTATION_REPRESENTATION('',(#118),
#285);
#282=MECHANICAL_DESIGN_GEOMETRIC_PRESENTATION_REPRESENTATION('',(#119),
#286);
#283=MECHANICAL_DESIGN_GEOMETRIC_PRESENTATION_REPRESENTATION('',(#120),
#287);
#284=MECHANICAL_DESIGN_GEOMETRIC_PRESENTATION_REPRESENTATION('',(#121),
#288);
#285=(
GEOMETRIC_REPRESENTATION_CONTEXT(3)
GLOBAL_UNCERTAINTY_ASSIGNED_CONTEXT((#289))
GLOBAL_UNIT_ASSIGNED_CONTEXT((#301,#297,#293))
REPRESENTATION_CONTEXT('lamp','TOP_LEVEL_ASSEMBLY_PART')
);
#286=(
GEOMETRIC_REPRESENTATION_CONTEXT(3)
GLOBAL_UNCERTAINTY_ASSIGNED_CONTEXT((#290))
GLOBAL_UNIT_ASSIGNED_CONTEXT((#302,#298,#294))
REPRESENTATION_CONTEXT('outlet_pipe','TOP_LEVEL_ASSEMBLY_PART')
);
#287=(
GEOMETRIC_REPRESENTATION_CONTEXT(3)
GLOBAL_UNCERTAINTY_ASSIGNED_CONTEXT((#291))
GLOBAL_UNIT_ASSIGNED_CONTEXT((#303,#299,#295))
REPRESENTATION_CONTEXT('inlet_pipe','TOP_LEVEL_ASSEMBLY_PART')
);
#288=(
GEOMETRIC_REPRESENTATION_CONTEXT(3)
GLOBAL_UNCERTAINTY_ASSIGNED_CONTEXT((#292))
GLOBAL_UNIT_ASSIGNED_CONTEXT((#304,#300,#296))
REPRESENTATION_CONTEXT('reactor_body','TOP_LEVEL_ASSEMBLY_PART')
);
#289=UNCERTAINTY_MEASURE_WITH_UNIT(LENGTH_MEASURE(1.E-8),#301,
'DISTANCE_ACCURACY_VALUE','Maximum Tolerance applied to model');
#290=UNCERTAINTY_MEASURE_WITH_UNIT(LENGTH_MEASURE(2.E-5),#302,
'DISTANCE_ACCURACY_VALUE','Maximum Tolerance applied to model');
#291=UNCERTAINTY_MEASURE_WITH_UNIT(LENGTH_MEASURE(1.E-8),#303,
'DISTANCE_ACCURACY_VALUE','Maximum Tolerance applied to model');
#292=UNCERTAINTY_MEASURE_WITH_UNIT(LENGTH_MEASURE(1.E-8),#304,
'DISTANCE_ACCURACY_VALUE','Maximum Tolerance applied to model');
#293=(
NAMED_UNIT(*)
SI_UNIT($,.STERADIAN.)
SOLID_ANGLE_UNIT()
);
#294=(
NAMED_UNIT(*)
SI_UNIT($,.STERADIAN.)
SOLID_ANGLE_UNIT()
);
#295=(
NAMED_UNIT(*)
SI_UNIT($,.STERADIAN.)
SOLID_ANGLE_UNIT()
);
#296=(
NAMED_UNIT(*)
SI_UNIT($,.STERADIAN.)
SOLID_ANGLE_UNIT()
);
#297=(
NAMED_UNIT(*)
PLANE_ANGLE_UNIT()
SI_UNIT($,.RADIAN.)
);
#298=(
NAMED_UNIT(*)
PLANE_ANGLE_UNIT()
SI_UNIT($,.RADIAN.)
);
#299=(
NAMED_UNIT(*)
PLANE_ANGLE_UNIT()
SI_UNIT($,.RADIAN.)
);
#300=(
NAMED_UNIT(*)
PLANE_ANGLE_UNIT()
SI_UNIT($,.RADIAN.)
);
#301=(
LENGTH_UNIT()
NAMED_UNIT(*)
SI_UNIT($,.METRE.)
);
#302=(
LENGTH_UNIT()
NAMED_UNIT(*)
SI_UNIT($,.METRE.)
);
#303=(
LENGTH_UNIT()
NAMED_UNIT(*)
SI_UNIT($,.METRE.)
);
#304=(
LENGTH_UNIT()
NAMED_UNIT(*)
SI_UNIT($,.METRE.)
);
#305=PRODUCT_DEFINITION_SHAPE('','',#309);
#306=PRODUCT_DEFINITION_SHAPE('','',#310);
#307=PRODUCT_DEFINITION_SHAPE('','',#311);
#308=PRODUCT_DEFINITION_SHAPE('','',#312);
#309=PRODUCT_DEFINITION('','',#317,#313);
#310=PRODUCT_DEFINITION('','',#318,#314);
#311=PRODUCT_DEFINITION('','',#319,#315);
#312=PRODUCT_DEFINITION('','',#320,#316);
#313=PRODUCT_DEFINITION_CONTEXT('',#341,'design');
#314=PRODUCT_DEFINITION_CONTEXT('',#342,'design');
#315=PRODUCT_DEFINITION_CONTEXT('',#343,'design');
#316=PRODUCT_DEFINITION_CONTEXT('',#344,'design');
#317=PRODUCT_DEFINITION_FORMATION_WITH_SPECIFIED_SOURCE('','',#325,
 .NOT_KNOWN.);
#318=PRODUCT_DEFINITION_FORMATION_WITH_SPECIFIED_SOURCE('','',#326,
 .NOT_KNOWN.);
#319=PRODUCT_DEFINITION_FORMATION_WITH_SPECIFIED_SOURCE('','',#327,
 .NOT_KNOWN.);
#320=PRODUCT_DEFINITION_FORMATION_WITH_SPECIFIED_SOURCE('','',#328,
 .NOT_KNOWN.);
#321=PRODUCT_RELATED_PRODUCT_CATEGORY('','',(#325));
#322=PRODUCT_RELATED_PRODUCT_CATEGORY('','',(#326));
#323=PRODUCT_RELATED_PRODUCT_CATEGORY('','',(#327));
#324=PRODUCT_RELATED_PRODUCT_CATEGORY('','',(#328));
#325=PRODUCT('lamp','lamp','lamp',(#333));
#326=PRODUCT('outlet_pipe','outlet_pipe','outlet_pipe',(#334));
#327=PRODUCT('inlet_pipe','inlet_pipe','inlet_pipe',(#335));
#328=PRODUCT('reactor_body','reactor_body','reactor_body',(#336));
#329=PRODUCT_CATEGORY('','');
#330=PRODUCT_CATEGORY('','');
#331=PRODUCT_CATEGORY('','');
#332=PRODUCT_CATEGORY('','');
#333=PRODUCT_CONTEXT('',#341,'mechanical');
#334=PRODUCT_CONTEXT('',#342,'mechanical');
#335=PRODUCT_CONTEXT('',#343,'mechanical');
#336=PRODUCT_CONTEXT('',#344,'mechanical');
#337=APPLICATION_PROTOCOL_DEFINITION('international standard',
'ap242_managed_model_based_3d_engineering',2020,#341);
#338=APPLICATION_PROTOCOL_DEFINITION('international standard',
'ap242_managed_model_based_3d_engineering',2020,#342);
#339=APPLICATION_PROTOCOL_DEFINITION('international standard',
'ap242_managed_model_based_3d_engineering',2020,#343);
#340=APPLICATION_PROTOCOL_DEFINITION('international standard',
'ap242_managed_model_based_3d_engineering',2020,#344);
#341=APPLICATION_CONTEXT('managed model based 3d engineering');
#342=APPLICATION_CONTEXT('managed model based 3d engineering');
#343=APPLICATION_CONTEXT('managed model based 3d engineering');
#344=APPLICATION_CONTEXT('managed model based 3d engineering');
ENDSEC;
END-ISO-10303-21;
