solid inlet
  facet normal -1.000000e+00 0.000000e+00 0.000000e+00
    outer loop
      vertex 1.739000e+00 5.613349e-03 -1.823888e-03
      vertex 1.739000e+00 2.318117e-03 -1.299593e-03
      vertex 1.739000e+00 5.111476e-03 2.951112e-03
    endloop
  endfacet
  facet normal -1.000000e+00 0.000000e+00 0.000000e+00
    outer loop
      vertex 1.739000e+00 -1.628121e-03 3.335846e-03
      vertex 1.739000e+00 1.683516e-03 2.541570e-03
      vertex 1.739000e+00 -1.394956e-03 -1.074146e-03
    endloop
  endfacet
  facet normal -1.000000e+00 0.000000e+00 0.000000e+00
    outer loop
      vertex 1.739000e+00 -5.613349e-03 -1.823888e-03
      vertex 1.739000e+00 -1.394956e-03 -1.074146e-03
      vertex 1.739000e+00 -2.400651e-03 -5.391950e-03
    endloop
  endfacet
  facet normal -1.000000e+00 0.000000e+00 0.000000e+00
    outer loop
      vertex 1.739000e+00 5.111476e-03 2.951112e-03
      vertex 1.739000e+00 2.318117e-03 -1.299593e-03
      vertex 1.739000e+00 1.683516e-03 2.541570e-03
    endloop
  endfacet
  facet normal -1.000000e+00 0.000000e+00 0.000000e+00
    outer loop
      vertex 1.739000e+00 -2.400651e-03 -5.391950e-03
      vertex 1.739000e+00 -5.474473e-03 -4.929238e-03
      vertex 1.739000e+00 -5.613349e-03 -1.823888e-03
    endloop
  endfacet
  facet normal -1.000000e+00 0.000000e+00 0.000000e+00
    outer loop
      vertex 1.739000e+00 5.111476e-03 2.951112e-03
      vertex 1.739000e+00 7.326275e-03 7.700225e-04
      vertex 1.739000e+00 5.613349e-03 -1.823888e-03
    endloop
  endfacet
  facet normal -1.000000e+00 0.000000e+00 -0.000000e+00
    outer loop
      vertex 1.739000e+00 1.683516e-03 2.541570e-03
      vertex 1.739000e+00 2.318117e-03 -1.299593e-03
      vertex 1.739000e+00 -1.394956e-03 -1.074146e-03
    endloop
  endfacet
  facet normal -1.000000e+00 0.000000e+00 0.000000e+00
    outer loop
      vertex 1.739000e+00 2.318117e-03 -1.299593e-03
      vertex 1.739000e+00 4.974623e-03 -4.366649e-03
      vertex 1.739000e+00 2.400651e-03 -5.391950e-03
    endloop
  endfacet
  facet normal -1.000000e+00 -0.000000e+00 0.000000e+00
    outer loop
      vertex 1.739000e+00 5.613349e-03 -1.823888e-03
      vertex 1.739000e+00 4.974623e-03 -4.366649e-03
      vertex 1.739000e+00 2.318117e-03 -1.299593e-03
    endloop
  endfacet
  facet normal -1.000000e+00 0.000000e+00 0.000000e+00
    outer loop
      vertex 1.739000e+00 -1.394956e-03 -1.074146e-03
      vertex 1.739000e+00 -3.985691e-03 6.246536e-04
      vertex 1.739000e+00 -1.628121e-03 3.335846e-03
    endloop
  endfacet
  facet normal -1.000000e+00 0.000000e+00 0.000000e+00
    outer loop
      vertex 1.739000e+00 1.985557e-03 -9.341310e-03
      vertex 1.739000e+00 2.400651e-03 -5.391950e-03
      vertex 1.739000e+00 5.613349e-03 -7.726112e-03
    endloop
  endfacet
  facet normal -1.000000e+00 -0.000000e+00 0.000000e+00
    outer loop
      vertex 1.739000e+00 3.884335e-03 8.724359e-03
      vertex 1.739000e+00 1.186495e-03 5.957053e-03
      vertex 1.739000e+00 0.000000e+00 9.550000e-03
    endloop
  endfacet
  facet normal -1.000000e+00 0.000000e+00 0.000000e+00
    outer loop
      vertex 1.739000e+00 8.270543e-03 -4.775000e-03
      vertex 1.739000e+00 5.613349e-03 -1.823888e-03
      vertex 1.739000e+00 9.497684e-03 -9.982468e-04
    endloop
  endfacet
  facet normal -1.000000e+00 0.000000e+00 0.000000e+00
    outer loop
      vertex 1.739000e+00 9.082590e-03 2.951112e-03
      vertex 1.739000e+00 5.111476e-03 2.951112e-03
      vertex 1.739000e+00 7.097033e-03 6.390197e-03
    endloop
  endfacet
  facet normal -1.000000e+00 0.000000e+00 0.000000e+00
    outer loop
      vertex 1.739000e+00 -9.497684e-03 -9.982468e-04
      vertex 1.739000e+00 -5.613349e-03 -1.823888e-03
      vertex 1.739000e+00 -8.270543e-03 -4.775000e-03
    endloop
  endfacet
  facet normal -1.000000e+00 0.000000e+00 0.000000e+00
    outer loop
      vertex 1.739000e+00 -5.613349e-03 -7.726112e-03
      vertex 1.739000e+00 -2.400651e-03 -5.391950e-03
      vertex 1.739000e+00 -1.985557e-03 -9.341310e-03
    endloop
  endfacet
  facet normal -1.000000e+00 0.000000e+00 -0.000000e+00
    outer loop
      vertex 1.739000e+00 -7.097033e-03 6.390197e-03
      vertex 1.739000e+00 -5.200940e-03 3.032810e-03
      vertex 1.739000e+00 -9.082590e-03 2.951112e-03
    endloop
  endfacet
  facet normal -1.000000e+00 0.000000e+00 0.000000e+00
    outer loop
      vertex 1.739000e+00 2.400651e-03 -5.391950e-03
      vertex 1.739000e+00 9.420009e-05 -3.930508e-03
      vertex 1.739000e+00 2.318117e-03 -1.299593e-03
    endloop
  endfacet
  facet normal -1.000000e+00 0.000000e+00 0.000000e+00
    outer loop
      vertex 1.739000e+00 -5.613349e-03 -1.823888e-03
      vertex 1.739000e+00 -3.985691e-03 6.246536e-04
      vertex 1.739000e+00 -1.394956e-03 -1.074146e-03
    endloop
  endfacet
  facet normal -1.000000e+00 0.000000e+00 -0.000000e+00
    outer loop
      vertex 1.739000e+00 -1.394956e-03 -1.074146e-03
      vertex 1.739000e+00 9.420009e-05 -3.930508e-03
      vertex 1.739000e+00 -2.400651e-03 -5.391950e-03
    endloop
  endfacet
  facet normal -1.000000e+00 0.000000e+00 0.000000e+00
    outer loop
      vertex 1.739000e+00 1.186495e-03 5.957053e-03
      vertex 1.739000e+00 4.048030e-03 5.605467e-03
      vertex 1.739000e+00 1.683516e-03 2.541570e-03
    endloop
  endfacet
  facet normal -1.000000e+00 0.000000e+00 0.000000e+00
    outer loop
      vertex 1.739000e+00 1.683516e-03 2.541570e-03
      vertex 1.739000e+00 4.048030e-03 5.605467e-03
      vertex 1.739000e+00 5.111476e-03 2.951112e-03
    endloop
  endfacet
  facet normal -1.000000e+00 0.000000e+00 -0.000000e+00
    outer loop
      vertex 1.739000e+00 1.186495e-03 5.957053e-03
      vertex 1.739000e+00 1.683516e-03 2.541570e-03
      vertex 1.739000e+00 -1.628121e-03 3.335846e-03
    endloop
  endfacet
  facet normal -1.000000e+00 0.000000e+00 0.000000e+00
    outer loop
      vertex 1.739000e+00 -1.628121e-03 3.335846e-03
      vertex 1.739000e+00 -3.985691e-03 6.246536e-04
      vertex 1.739000e+00 -5.200940e-03 3.032810e-03
    endloop
  endfacet
  facet normal -1.000000e+00 0.000000e+00 0.000000e+00
    outer loop
      vertex 1.739000e+00 -1.985557e-03 -9.341310e-03
      vertex 1.739000e+00 -4.840572e-17 -7.136126e-03
      vertex 1.739000e+00 1.985557e-03 -9.341310e-03
    endloop
  endfacet
  facet normal -1.000000e+00 0.000000e+00 0.000000e+00
    outer loop
      vertex 1.739000e+00 -8.270543e-03 -4.775000e-03
      vertex 1.739000e+00 -5.474473e-03 -4.929238e-03
      vertex 1.739000e+00 -5.613349e-03 -7.726112e-03
    endloop
  endfacet
  facet normal -1.000000e+00 0.000000e+00 0.000000e+00
    outer loop
      vertex 1.739000e+00 -5.200940e-03 3.032810e-03
      vertex 1.739000e+00 -4.194509e-03 5.773247e-03
      vertex 1.739000e+00 -1.628121e-03 3.335846e-03
    endloop
  endfacet
  facet normal -1.000000e+00 0.000000e+00 0.000000e+00
    outer loop
      vertex 1.739000e+00 -1.628121e-03 3.335846e-03
      vertex 1.739000e+00 -4.194509e-03 5.773247e-03
      vertex 1.739000e+00 -1.553481e-03 6.866201e-03
    endloop
  endfacet
  facet normal -1.000000e+00 0.000000e+00 0.000000e+00
    outer loop
      vertex 1.739000e+00 1.985557e-03 -9.341310e-03
      vertex 1.739000e+00 -4.840572e-17 -7.136126e-03
      vertex 1.739000e+00 2.400651e-03 -5.391950e-03
    endloop
  endfacet
  facet normal -1.000000e+00 -0.000000e+00 0.000000e+00
    outer loop
      vertex 1.739000e+00 1.186495e-03 5.957053e-03
      vertex 1.739000e+00 -1.628121e-03 3.335846e-03
      vertex 1.739000e+00 -1.553481e-03 6.866201e-03
    endloop
  endfacet
  facet normal -1.000000e+00 0.000000e+00 0.000000e+00
    outer loop
      vertex 1.739000e+00 2.400651e-03 -5.391950e-03
      vertex 1.739000e+00 4.974623e-03 -4.366649e-03
      vertex 1.739000e+00 5.613349e-03 -7.726112e-03
    endloop
  endfacet
  facet normal -1.000000e+00 0.000000e+00 0.000000e+00
    outer loop
      vertex 1.739000e+00 5.613349e-03 -1.823888e-03
      vertex 1.739000e+00 7.326275e-03 7.700225e-04
      vertex 1.739000e+00 9.497684e-03 -9.982468e-04
    endloop
  endfacet
  facet normal -1.000000e+00 0.000000e+00 0.000000e+00
    outer loop
      vertex 1.739000e+00 -3.884335e-03 8.724359e-03
      vertex 1.739000e+00 -4.194509e-03 5.773247e-03
      vertex 1.739000e+00 -7.097033e-03 6.390197e-03
    endloop
  endfacet
  facet normal -1.000000e+00 0.000000e+00 0.000000e+00
    outer loop
      vertex 1.739000e+00 5.613349e-03 -7.726112e-03
      vertex 1.739000e+00 4.974623e-03 -4.366649e-03
      vertex 1.739000e+00 8.270543e-03 -4.775000e-03
    endloop
  endfacet
  facet normal -1.000000e+00 0.000000e+00 0.000000e+00
    outer loop
      vertex 1.739000e+00 8.270543e-03 -4.775000e-03
      vertex 1.739000e+00 4.974623e-03 -4.366649e-03
      vertex 1.739000e+00 5.613349e-03 -1.823888e-03
    endloop
  endfacet
  facet normal -1.000000e+00 0.000000e+00 0.000000e+00
    outer loop
      vertex 1.739000e+00 1.186495e-03 5.957053e-03
      vertex 1.739000e+00 -1.553481e-03 6.866201e-03
      vertex 1.739000e+00 0.000000e+00 9.550000e-03
    endloop
  endfacet
  facet normal -1.000000e+00 -0.000000e+00 0.000000e+00
    outer loop
      vertex 1.739000e+00 7.097033e-03 6.390197e-03
      vertex 1.739000e+00 4.048030e-03 5.605467e-03
      vertex 1.739000e+00 3.884335e-03 8.724359e-03
    endloop
  endfacet
  facet normal -1.000000e+00 0.000000e+00 0.000000e+00
    outer loop
      vertex 1.739000e+00 -9.497684e-03 -9.982468e-04
      vertex 1.739000e+00 -7.097033e-03 7.459282e-04
      vertex 1.739000e+00 -5.613349e-03 -1.823888e-03
    endloop
  endfacet
  facet normal -1.000000e+00 0.000000e+00 0.000000e+00
    outer loop
      vertex 1.739000e+00 9.497684e-03 -9.982468e-04
      vertex 1.739000e+00 7.326275e-03 7.700225e-04
      vertex 1.739000e+00 9.082590e-03 2.951112e-03
    endloop
  endfacet
  facet normal -1.000000e+00 0.000000e+00 0.000000e+00
    outer loop
      vertex 1.739000e+00 -5.613349e-03 -7.726112e-03
      vertex 1.739000e+00 -5.474473e-03 -4.929238e-03
      vertex 1.739000e+00 -2.400651e-03 -5.391950e-03
    endloop
  endfacet
  facet normal -1.000000e+00 0.000000e+00 0.000000e+00
    outer loop
      vertex 1.739000e+00 0.000000e+00 9.550000e-03
      vertex 1.739000e+00 -1.553481e-03 6.866201e-03
      vertex 1.739000e+00 -3.884335e-03 8.724359e-03
    endloop
  endfacet
  facet normal -1.000000e+00 -0.000000e+00 0.000000e+00
    outer loop
      vertex 1.739000e+00 9.082590e-03 2.951112e-03
      vertex 1.739000e+00 7.326275e-03 7.700225e-04
      vertex 1.739000e+00 5.111476e-03 2.951112e-03
    endloop
  endfacet
  facet normal -1.000000e+00 0.000000e+00 0.000000e+00
    outer loop
      vertex 1.739000e+00 5.111476e-03 2.951112e-03
      vertex 1.739000e+00 4.048030e-03 5.605467e-03
      vertex 1.739000e+00 7.097033e-03 6.390197e-03
    endloop
  endfacet
  facet normal -1.000000e+00 0.000000e+00 -0.000000e+00
    outer loop
      vertex 1.739000e+00 -5.613349e-03 -1.823888e-03
      vertex 1.739000e+00 -5.474473e-03 -4.929238e-03
      vertex 1.739000e+00 -8.270543e-03 -4.775000e-03
    endloop
  endfacet
  facet normal -1.000000e+00 0.000000e+00 -0.000000e+00
    outer loop
      vertex 1.739000e+00 3.884335e-03 8.724359e-03
      vertex 1.739000e+00 4.048030e-03 5.605467e-03
      vertex 1.739000e+00 1.186495e-03 5.957053e-03
    endloop
  endfacet
  facet normal -1.000000e+00 0.000000e+00 0.000000e+00
    outer loop
      vertex 1.739000e+00 -2.400651e-03 -5.391950e-03
      vertex 1.739000e+00 -4.840572e-17 -7.136126e-03
      vertex 1.739000e+00 -1.985557e-03 -9.341310e-03
    endloop
  endfacet
  facet normal -1.000000e+00 0.000000e+00 -0.000000e+00
    outer loop
      vertex 1.739000e+00 -9.082590e-03 2.951112e-03
      vertex 1.739000e+00 -7.097033e-03 7.459282e-04
      vertex 1.739000e+00 -9.497684e-03 -9.982468e-04
    endloop
  endfacet
  facet normal -1.000000e+00 0.000000e+00 0.000000e+00
    outer loop
      vertex 1.739000e+00 -7.097033e-03 6.390197e-03
      vertex 1.739000e+00 -4.194509e-03 5.773247e-03
      vertex 1.739000e+00 -5.200940e-03 3.032810e-03
    endloop
  endfacet
  facet normal -1.000000e+00 0.000000e+00 0.000000e+00
    outer loop
      vertex 1.739000e+00 -5.200940e-03 3.032810e-03
      vertex 1.739000e+00 -7.097033e-03 7.459282e-04
      vertex 1.739000e+00 -9.082590e-03 2.951112e-03
    endloop
  endfacet
  facet normal -1.000000e+00 -0.000000e+00 0.000000e+00
    outer loop
      vertex 1.739000e+00 2.318117e-03 -1.299593e-03
      vertex 1.739000e+00 9.420009e-05 -3.930508e-03
      vertex 1.739000e+00 -1.394956e-03 -1.074146e-03
    endloop
  endfacet
  facet normal -1.000000e+00 0.000000e+00 0.000000e+00
    outer loop
      vertex 1.739000e+00 -7.097033e-03 7.459282e-04
      vertex 1.739000e+00 -3.985691e-03 6.246536e-04
      vertex 1.739000e+00 -5.613349e-03 -1.823888e-03
    endloop
  endfacet
  facet normal -1.000000e+00 0.000000e+00 -0.000000e+00
    outer loop
      vertex 1.739000e+00 -5.200940e-03 3.032810e-03
      vertex 1.739000e+00 -3.985691e-03 6.246536e-04
      vertex 1.739000e+00 -7.097033e-03 7.459282e-04
    endloop
  endfacet
  facet normal -1.000000e+00 0.000000e+00 0.000000e+00
    outer loop
      vertex 1.739000e+00 -4.840572e-17 -7.136126e-03
      vertex 1.739000e+00 9.420009e-05 -3.930508e-03
      vertex 1.739000e+00 2.400651e-03 -5.391950e-03
    endloop
  endfacet
  facet normal -1.000000e+00 0.000000e+00 0.000000e+00
    outer loop
      vertex 1.739000e+00 -2.400651e-03 -5.391950e-03
      vertex 1.739000e+00 9.420009e-05 -3.930508e-03
      vertex 1.739000e+00 -4.840572e-17 -7.136126e-03
    endloop
  endfacet
  facet normal -1.000000e+00 -0.000000e+00 0.000000e+00
    outer loop
      vertex 1.739000e+00 -1.553481e-03 6.866201e-03
      vertex 1.739000e+00 -4.194509e-03 5.773247e-03
      vertex 1.739000e+00 -3.884335e-03 8.724359e-03
    endloop
  endfacet
endsolid inlet
