solid lampWall
  facet normal 0.000000e+00 -9.987955e-01 -4.906767e-02
    outer loop
      vertex 4.450000e-02 1.000000e-02 0.000000e+00
      vertex 8.445000e-01 9.951847e-03 9.801714e-04
      vertex 4.450000e-02 9.951847e-03 9.801714e-04
    endloop
  endfacet
  facet normal 0.000000e+00 -9.987955e-01 -4.906767e-02
    outer loop
      vertex 4.450000e-02 1.000000e-02 0.000000e+00
      vertex 8.445000e-01 1.000000e-02 0.000000e+00
      vertex 8.445000e-01 9.951847e-03 9.801714e-04
    endloop
  endfacet
  facet normal 0.000000e+00 -9.891765e-01 -1.467305e-01
    outer loop
      vertex 4.450000e-02 9.951847e-03 9.801714e-04
      vertex 8.445000e-01 9.807853e-03 1.950903e-03
      vertex 4.450000e-02 9.807853e-03 1.950903e-03
    endloop
  endfacet
  facet normal 0.000000e+00 -9.891765e-01 -1.467305e-01
    outer loop
      vertex 4.450000e-02 9.951847e-03 9.801714e-04
      vertex 8.445000e-01 9.951847e-03 9.801714e-04
      vertex 8.445000e-01 9.807853e-03 1.950903e-03
    endloop
  endfacet
  facet normal 0.000000e+00 -9.700313e-01 -2.429802e-01
    outer loop
      vertex 4.450000e-02 9.807853e-03 1.950903e-03
      vertex 8.445000e-01 9.569403e-03 2.902847e-03
      vertex 4.450000e-02 9.569403e-03 2.902847e-03
    endloop
  endfacet
  facet normal 0.000000e+00 -9.700313e-01 -2.429802e-01
    outer loop
      vertex 4.450000e-02 9.807853e-03 1.950903e-03
      vertex 8.445000e-01 9.807853e-03 1.950903e-03
      vertex 8.445000e-01 9.569403e-03 2.902847e-03
    endloop
  endfacet
  facet normal 0.000000e+00 -9.415441e-01 -3.368899e-01
    outer loop
      vertex 4.450000e-02 9.569403e-03 2.902847e-03
      vertex 8.445000e-01 9.238795e-03 3.826834e-03
      vertex 4.450000e-02 9.238795e-03 3.826834e-03
    endloop
  endfacet
  facet normal 0.000000e+00 -9.415441e-01 -3.368899e-01
    outer loop
      vertex 4.450000e-02 9.569403e-03 2.902847e-03
      vertex 8.445000e-01 9.569403e-03 2.902847e-03
      vertex 8.445000e-01 9.238795e-03 3.826834e-03
    endloop
  endfacet
  facet normal 0.000000e+00 -9.039893e-01 -4.275551e-01
    outer loop
      vertex 4.450000e-02 9.238795e-03 3.826834e-03
      vertex 8.445000e-01 8.819213e-03 4.713967e-03
      vertex 4.450000e-02 8.819213e-03 4.713967e-03
    endloop
  endfacet
  facet normal 0.000000e+00 -9.039893e-01 -4.275551e-01
    outer loop
      vertex 4.450000e-02 9.238795e-03 3.826834e-03
      vertex 8.445000e-01 9.238795e-03 3.826834e-03
      vertex 8.445000e-01 8.819213e-03 4.713967e-03
    endloop
  endfacet
  facet normal 0.000000e+00 -8.577286e-01 -5.141027e-01
    outer loop
      vertex 4.450000e-02 8.819213e-03 4.713967e-03
      vertex 8.445000e-01 8.314696e-03 5.555702e-03
      vertex 4.450000e-02 8.314696e-03 5.555702e-03
    endloop
  endfacet
  facet normal 0.000000e+00 -8.577286e-01 -5.141027e-01
    outer loop
      vertex 4.450000e-02 8.819213e-03 4.713967e-03
      vertex 8.445000e-01 8.819213e-03 4.713967e-03
      vertex 8.445000e-01 8.314696e-03 5.555702e-03
    endloop
  endfacet
  facet normal 0.000000e+00 -8.032075e-01 -5.956993e-01
    outer loop
      vertex 4.450000e-02 8.314696e-03 5.555702e-03
      vertex 8.445000e-01 7.730105e-03 6.343933e-03
      vertex 4.450000e-02 7.730105e-03 6.343933e-03
    endloop
  endfacet
  facet normal 0.000000e+00 -8.032075e-01 -5.956993e-01
    outer loop
      vertex 4.450000e-02 8.314696e-03 5.555702e-03
      vertex 8.445000e-01 8.314696e-03 5.555702e-03
      vertex 8.445000e-01 7.730105e-03 6.343933e-03
    endloop
  endfacet
  facet normal 0.000000e+00 -7.409511e-01 -6.715590e-01
    outer loop
      vertex 4.450000e-02 7.730105e-03 6.343933e-03
      vertex 8.445000e-01 7.071068e-03 7.071068e-03
      vertex 4.450000e-02 7.071068e-03 7.071068e-03
    endloop
  endfacet
  facet normal 0.000000e+00 -7.409511e-01 -6.715590e-01
    outer loop
      vertex 4.450000e-02 7.730105e-03 6.343933e-03
      vertex 8.445000e-01 7.730105e-03 6.343933e-03
      vertex 8.445000e-01 7.071068e-03 7.071068e-03
    endloop
  endfacet
  facet normal 0.000000e+00 -6.715590e-01 -7.409511e-01
    outer loop
      vertex 4.450000e-02 7.071068e-03 7.071068e-03
      vertex 8.445000e-01 6.343933e-03 7.730105e-03
      vertex 4.450000e-02 6.343933e-03 7.730105e-03
    endloop
  endfacet
  facet normal 0.000000e+00 -6.715590e-01 -7.409511e-01
    outer loop
      vertex 4.450000e-02 7.071068e-03 7.071068e-03
      vertex 8.445000e-01 7.071068e-03 7.071068e-03
      vertex 8.445000e-01 6.343933e-03 7.730105e-03
    endloop
  endfacet
  facet normal 0.000000e+00 -5.956993e-01 -8.032075e-01
    outer loop
      vertex 4.450000e-02 6.343933e-03 7.730105e-03
      vertex 8.445000e-01 5.555702e-03 8.314696e-03
      vertex 4.450000e-02 5.555702e-03 8.314696e-03
    endloop
  endfacet
  facet normal 0.000000e+00 -5.956993e-01 -8.032075e-01
    outer loop
      vertex 4.450000e-02 6.343933e-03 7.730105e-03
      vertex 8.445000e-01 6.343933e-03 7.730105e-03
      vertex 8.445000e-01 5.555702e-03 8.314696e-03
    endloop
  endfacet
  facet normal 0.000000e+00 -5.141027e-01 -8.577286e-01
    outer loop
      vertex 4.450000e-02 5.555702e-03 8.314696e-03
      vertex 8.445000e-01 4.713967e-03 8.819213e-03
      vertex 4.450000e-02 4.713967e-03 8.819213e-03
    endloop
  endfacet
  facet normal 0.000000e+00 -5.141027e-01 -8.577286e-01
    outer loop
      vertex 4.450000e-02 5.555702e-03 8.314696e-03
      vertex 8.445000e-01 5.555702e-03 8.314696e-03
      vertex 8.445000e-01 4.713967e-03 8.819213e-03
    endloop
  endfacet
  facet normal 0.000000e+00 -4.275551e-01 -9.039893e-01
    outer loop
      vertex 4.450000e-02 4.713967e-03 8.819213e-03
      vertex 8.445000e-01 3.826834e-03 9.238795e-03
      vertex 4.450000e-02 3.826834e-03 9.238795e-03
    endloop
  endfacet
  facet normal 0.000000e+00 -4.275551e-01 -9.039893e-01
    outer loop
      vertex 4.450000e-02 4.713967e-03 8.819213e-03
      vertex 8.445000e-01 4.713967e-03 8.819213e-03
      vertex 8.445000e-01 3.826834e-03 9.238795e-03
    endloop
  endfacet
  facet normal 0.000000e+00 -3.368899e-01 -9.415441e-01
    outer loop
      vertex 4.450000e-02 3.826834e-03 9.238795e-03
      vertex 8.445000e-01 2.902847e-03 9.569403e-03
      vertex 4.450000e-02 2.902847e-03 9.569403e-03
    endloop
  endfacet
  facet normal 0.000000e+00 -3.368899e-01 -9.415441e-01
    outer loop
      vertex 4.450000e-02 3.826834e-03 9.238795e-03
      vertex 8.445000e-01 3.826834e-03 9.238795e-03
      vertex 8.445000e-01 2.902847e-03 9.569403e-03
    endloop
  endfacet
  facet normal 0.000000e+00 -2.429802e-01 -9.700313e-01
    outer loop
      vertex 4.450000e-02 2.902847e-03 9.569403e-03
      vertex 8.445000e-01 1.950903e-03 9.807853e-03
      vertex 4.450000e-02 1.950903e-03 9.807853e-03
    endloop
  endfacet
  facet normal 0.000000e+00 -2.429802e-01 -9.700313e-01
    outer loop
      vertex 4.450000e-02 2.902847e-03 9.569403e-03
      vertex 8.445000e-01 2.902847e-03 9.569403e-03
      vertex 8.445000e-01 1.950903e-03 9.807853e-03
    endloop
  endfacet
  facet normal 0.000000e+00 -1.467305e-01 -9.891765e-01
    outer loop
      vertex 4.450000e-02 1.950903e-03 9.807853e-03
      vertex 8.445000e-01 9.801714e-04 9.951847e-03
      vertex 4.450000e-02 9.801714e-04 9.951847e-03
    endloop
  endfacet
  facet normal 0.000000e+00 -1.467305e-01 -9.891765e-01
    outer loop
      vertex 4.450000e-02 1.950903e-03 9.807853e-03
      vertex 8.445000e-01 1.950903e-03 9.807853e-03
      vertex 8.445000e-01 9.801714e-04 9.951847e-03
    endloop
  endfacet
  facet normal 0.000000e+00 -4.906767e-02 -9.987955e-01
    outer loop
      vertex 4.450000e-02 9.801714e-04 9.951847e-03
      vertex 8.445000e-01 6.123234e-19 1.000000e-02
      vertex 4.450000e-02 6.123234e-19 1.000000e-02
    endloop
  endfacet
  facet normal 0.000000e+00 -4.906767e-02 -9.987955e-01
    outer loop
      vertex 4.450000e-02 9.801714e-04 9.951847e-03
      vertex 8.445000e-01 9.801714e-04 9.951847e-03
      vertex 8.445000e-01 6.123234e-19 1.000000e-02
    endloop
  endfacet
  facet normal 0.000000e+00 4.906767e-02 -9.987955e-01
    outer loop
      vertex 4.450000e-02 6.123234e-19 1.000000e-02
      vertex 8.445000e-01 -9.801714e-04 9.951847e-03
      vertex 4.450000e-02 -9.801714e-04 9.951847e-03
    endloop
  endfacet
  facet normal 0.000000e+00 4.906767e-02 -9.987955e-01
    outer loop
      vertex 4.450000e-02 6.123234e-19 1.000000e-02
      vertex 8.445000e-01 6.123234e-19 1.000000e-02
      vertex 8.445000e-01 -9.801714e-04 9.951847e-03
    endloop
  endfacet
  facet normal 0.000000e+00 1.467305e-01 -9.891765e-01
    outer loop
      vertex 4.450000e-02 -9.801714e-04 9.951847e-03
      vertex 8.445000e-01 -1.950903e-03 9.807853e-03
      vertex 4.450000e-02 -1.950903e-03 9.807853e-03
    endloop
  endfacet
  facet normal 0.000000e+00 1.467305e-01 -9.891765e-01
    outer loop
      vertex 4.450000e-02 -9.801714e-04 9.951847e-03
      vertex 8.445000e-01 -9.801714e-04 9.951847e-03
      vertex 8.445000e-01 -1.950903e-03 9.807853e-03
    endloop
  endfacet
  facet normal 0.000000e+00 2.429802e-01 -9.700313e-01
    outer loop
      vertex 4.450000e-02 -1.950903e-03 9.807853e-03
      vertex 8.445000e-01 -2.902847e-03 9.569403e-03
      vertex 4.450000e-02 -2.902847e-03 9.569403e-03
    endloop
  endfacet
  facet normal 0.000000e+00 2.429802e-01 -9.700313e-01
    outer loop
      vertex 4.450000e-02 -1.950903e-03 9.807853e-03
      vertex 8.445000e-01 -1.950903e-03 9.807853e-03
      vertex 8.445000e-01 -2.902847e-03 9.569403e-03
    endloop
  endfacet
  facet normal 0.000000e+00 3.368899e-01 -9.415441e-01
    outer loop
      vertex 4.450000e-02 -2.902847e-03 9.569403e-03
      vertex 8.445000e-01 -3.826834e-03 9.238795e-03
      vertex 4.450000e-02 -3.826834e-03 9.238795e-03
    endloop
  endfacet
  facet normal 0.000000e+00 3.368899e-01 -9.415441e-01
    outer loop
      vertex 4.450000e-02 -2.902847e-03 9.569403e-03
      vertex 8.445000e-01 -2.902847e-03 9.569403e-03
      vertex 8.445000e-01 -3.826834e-03 9.238795e-03
    endloop
  endfacet
  facet normal 0.000000e+00 4.275551e-01 -9.039893e-01
    outer loop
      vertex 4.450000e-02 -3.826834e-03 9.238795e-03
      vertex 8.445000e-01 -4.713967e-03 8.819213e-03
      vertex 4.450000e-02 -4.713967e-03 8.819213e-03
    endloop
  endfacet
  facet normal 0.000000e+00 4.275551e-01 -9.039893e-01
    outer loop
      vertex 4.450000e-02 -3.826834e-03 9.238795e-03
      vertex 8.445000e-01 -3.826834e-03 9.238795e-03
      vertex 8.445000e-01 -4.713967e-03 8.819213e-03
    endloop
  endfacet
  facet normal 0.000000e+00 5.141027e-01 -8.577286e-01
    outer loop
      vertex 4.450000e-02 -4.713967e-03 8.819213e-03
      vertex 8.445000e-01 -5.555702e-03 8.314696e-03
      vertex 4.450000e-02 -5.555702e-03 8.314696e-03
    endloop
  endfacet
  facet normal 0.000000e+00 5.141027e-01 -8.577286e-01
    outer loop
      vertex 4.450000e-02 -4.713967e-03 8.819213e-03
      vertex 8.445000e-01 -4.713967e-03 8.819213e-03
      vertex 8.445000e-01 -5.555702e-03 8.314696e-03
    endloop
  endfacet
  facet normal 0.000000e+00 5.956993e-01 -8.032075e-01
    outer loop
      vertex 4.450000e-02 -5.555702e-03 8.314696e-03
      vertex 8.445000e-01 -6.343933e-03 7.730105e-03
      vertex 4.450000e-02 -6.343933e-03 7.730105e-03
    endloop
  endfacet
  facet normal 0.000000e+00 5.956993e-01 -8.032075e-01
    outer loop
      vertex 4.450000e-02 -5.555702e-03 8.314696e-03
      vertex 8.445000e-01 -5.555702e-03 8.314696e-03
      vertex 8.445000e-01 -6.343933e-03 7.730105e-03
    endloop
  endfacet
  facet normal 0.000000e+00 6.715590e-01 -7.409511e-01
    outer loop
      vertex 4.450000e-02 -6.343933e-03 7.730105e-03
      vertex 8.445000e-01 -7.071068e-03 7.071068e-03
      vertex 4.450000e-02 -7.071068e-03 7.071068e-03
    endloop
  endfacet
  facet normal 0.000000e+00 6.715590e-01 -7.409511e-01
    outer loop
      vertex 4.450000e-02 -6.343933e-03 7.730105e-03
      vertex 8.445000e-01 -6.343933e-03 7.730105e-03
      vertex 8.445000e-01 -7.071068e-03 7.071068e-03
    endloop
  endfacet
  facet normal 0.000000e+00 7.409511e-01 -6.715590e-01
    outer loop
      vertex 4.450000e-02 -7.071068e-03 7.071068e-03
      vertex 8.445000e-01 -7.730105e-03 6.343933e-03
      vertex 4.450000e-02 -7.730105e-03 6.343933e-03
    endloop
  endfacet
  facet normal 0.000000e+00 7.409511e-01 -6.715590e-01
    outer loop
      vertex 4.450000e-02 -7.071068e-03 7.071068e-03
      vertex 8.445000e-01 -7.071068e-03 7.071068e-03
      vertex 8.445000e-01 -7.730105e-03 6.343933e-03
    endloop
  endfacet
  facet normal 0.000000e+00 8.032075e-01 -5.956993e-01
    outer loop
      vertex 4.450000e-02 -7.730105e-03 6.343933e-03
      vertex 8.445000e-01 -8.314696e-03 5.555702e-03
      vertex 4.450000e-02 -8.314696e-03 5.555702e-03
    endloop
  endfacet
  facet normal 0.000000e+00 8.032075e-01 -5.956993e-01
    outer loop
      vertex 4.450000e-02 -7.730105e-03 6.343933e-03
      vertex 8.445000e-01 -7.730105e-03 6.343933e-03
      vertex 8.445000e-01 -8.314696e-03 5.555702e-03
    endloop
  endfacet
  facet normal 0.000000e+00 8.577286e-01 -5.141027e-01
    outer loop
      vertex 4.450000e-02 -8.314696e-03 5.555702e-03
      vertex 8.445000e-01 -8.819213e-03 4.713967e-03
      vertex 4.450000e-02 -8.819213e-03 4.713967e-03
    endloop
  endfacet
  facet normal 0.000000e+00 8.577286e-01 -5.141027e-01
    outer loop
      vertex 4.450000e-02 -8.314696e-03 5.555702e-03
      vertex 8.445000e-01 -8.314696e-03 5.555702e-03
      vertex 8.445000e-01 -8.819213e-03 4.713967e-03
    endloop
  endfacet
  facet normal 0.000000e+00 9.039893e-01 -4.275551e-01
    outer loop
      vertex 4.450000e-02 -8.819213e-03 4.713967e-03
      vertex 8.445000e-01 -9.238795e-03 3.826834e-03
      vertex 4.450000e-02 -9.238795e-03 3.826834e-03
    endloop
  endfacet
  facet normal 0.000000e+00 9.039893e-01 -4.275551e-01
    outer loop
      vertex 4.450000e-02 -8.819213e-03 4.713967e-03
      vertex 8.445000e-01 -8.819213e-03 4.713967e-03
      vertex 8.445000e-01 -9.238795e-03 3.826834e-03
    endloop
  endfacet
  facet normal 0.000000e+00 9.415441e-01 -3.368899e-01
    outer loop
      vertex 4.450000e-02 -9.238795e-03 3.826834e-03
      vertex 8.445000e-01 -9.569403e-03 2.902847e-03
      vertex 4.450000e-02 -9.569403e-03 2.902847e-03
    endloop
  endfacet
  facet normal 0.000000e+00 9.415441e-01 -3.368899e-01
    outer loop
      vertex 4.450000e-02 -9.238795e-03 3.826834e-03
      vertex 8.445000e-01 -9.238795e-03 3.826834e-03
      vertex 8.445000e-01 -9.569403e-03 2.902847e-03
    endloop
  endfacet
  facet normal 0.000000e+00 9.700313e-01 -2.429802e-01
    outer loop
      vertex 4.450000e-02 -9.569403e-03 2.902847e-03
      vertex 8.445000e-01 -9.807853e-03 1.950903e-03
      vertex 4.450000e-02 -9.807853e-03 1.950903e-03
    endloop
  endfacet
  facet normal 0.000000e+00 9.700313e-01 -2.429802e-01
    outer loop
      vertex 4.450000e-02 -9.569403e-03 2.902847e-03
      vertex 8.445000e-01 -9.569403e-03 2.902847e-03
      vertex 8.445000e-01 -9.807853e-03 1.950903e-03
    endloop
  endfacet
  facet normal 0.000000e+00 9.891765e-01 -1.467305e-01
    outer loop
      vertex 4.450000e-02 -9.807853e-03 1.950903e-03
      vertex 8.445000e-01 -9.951847e-03 9.801714e-04
      vertex 4.450000e-02 -9.951847e-03 9.801714e-04
    endloop
  endfacet
  facet normal 0.000000e+00 9.891765e-01 -1.467305e-01
    outer loop
      vertex 4.450000e-02 -9.807853e-03 1.950903e-03
      vertex 8.445000e-01 -9.807853e-03 1.950903e-03
      vertex 8.445000e-01 -9.951847e-03 9.801714e-04
    endloop
  endfacet
  facet normal 0.000000e+00 9.987955e-01 -4.906767e-02
    outer loop
      vertex 4.450000e-02 -9.951847e-03 9.801714e-04
      vertex 8.445000e-01 -1.000000e-02 1.224647e-18
      vertex 4.450000e-02 -1.000000e-02 1.224647e-18
    endloop
  endfacet
  facet normal 0.000000e+00 9.987955e-01 -4.906767e-02
    outer loop
      vertex 4.450000e-02 -9.951847e-03 9.801714e-04
      vertex 8.445000e-01 -9.951847e-03 9.801714e-04
      vertex 8.445000e-01 -1.000000e-02 1.224647e-18
    endloop
  endfacet
  facet normal 0.000000e+00 9.987955e-01 4.906767e-02
    outer loop
      vertex 4.450000e-02 -1.000000e-02 1.224647e-18
      vertex 8.445000e-01 -9.951847e-03 -9.801714e-04
      vertex 4.450000e-02 -9.951847e-03 -9.801714e-04
    endloop
  endfacet
  facet normal -0.000000e+00 9.987955e-01 4.906767e-02
    outer loop
      vertex 4.450000e-02 -1.000000e-02 1.224647e-18
      vertex 8.445000e-01 -1.000000e-02 1.224647e-18
      vertex 8.445000e-01 -9.951847e-03 -9.801714e-04
    endloop
  endfacet
  facet normal 0.000000e+00 9.891765e-01 1.467305e-01
    outer loop
      vertex 4.450000e-02 -9.951847e-03 -9.801714e-04
      vertex 8.445000e-01 -9.807853e-03 -1.950903e-03
      vertex 4.450000e-02 -9.807853e-03 -1.950903e-03
    endloop
  endfacet
  facet normal -0.000000e+00 9.891765e-01 1.467305e-01
    outer loop
      vertex 4.450000e-02 -9.951847e-03 -9.801714e-04
      vertex 8.445000e-01 -9.951847e-03 -9.801714e-04
      vertex 8.445000e-01 -9.807853e-03 -1.950903e-03
    endloop
  endfacet
  facet normal 0.000000e+00 9.700313e-01 2.429802e-01
    outer loop
      vertex 4.450000e-02 -9.807853e-03 -1.950903e-03
      vertex 8.445000e-01 -9.569403e-03 -2.902847e-03
      vertex 4.450000e-02 -9.569403e-03 -2.902847e-03
    endloop
  endfacet
  facet normal -0.000000e+00 9.700313e-01 2.429802e-01
    outer loop
      vertex 4.450000e-02 -9.807853e-03 -1.950903e-03
      vertex 8.445000e-01 -9.807853e-03 -1.950903e-03
      vertex 8.445000e-01 -9.569403e-03 -2.902847e-03
    endloop
  endfacet
  facet normal 0.000000e+00 9.415441e-01 3.368899e-01
    outer loop
      vertex 4.450000e-02 -9.569403e-03 -2.902847e-03
      vertex 8.445000e-01 -9.238795e-03 -3.826834e-03
      vertex 4.450000e-02 -9.238795e-03 -3.826834e-03
    endloop
  endfacet
  facet normal -0.000000e+00 9.415441e-01 3.368899e-01
    outer loop
      vertex 4.450000e-02 -9.569403e-03 -2.902847e-03
      vertex 8.445000e-01 -9.569403e-03 -2.902847e-03
      vertex 8.445000e-01 -9.238795e-03 -3.826834e-03
    endloop
  endfacet
  facet normal 0.000000e+00 9.039893e-01 4.275551e-01
    outer loop
      vertex 4.450000e-02 -9.238795e-03 -3.826834e-03
      vertex 8.445000e-01 -8.819213e-03 -4.713967e-03
      vertex 4.450000e-02 -8.819213e-03 -4.713967e-03
    endloop
  endfacet
  facet normal -0.000000e+00 9.039893e-01 4.275551e-01
    outer loop
      vertex 4.450000e-02 -9.238795e-03 -3.826834e-03
      vertex 8.445000e-01 -9.238795e-03 -3.826834e-03
      vertex 8.445000e-01 -8.819213e-03 -4.713967e-03
    endloop
  endfacet
  facet normal 0.000000e+00 8.577286e-01 5.141027e-01
    outer loop
      vertex 4.450000e-02 -8.819213e-03 -4.713967e-03
      vertex 8.445000e-01 -8.314696e-03 -5.555702e-03
      vertex 4.450000e-02 -8.314696e-03 -5.555702e-03
    endloop
  endfacet
  facet normal -0.000000e+00 8.577286e-01 5.141027e-01
    outer loop
      vertex 4.450000e-02 -8.819213e-03 -4.713967e-03
      vertex 8.445000e-01 -8.819213e-03 -4.713967e-03
      vertex 8.445000e-01 -8.314696e-03 -5.555702e-03
    endloop
  endfacet
  facet normal 0.000000e+00 8.032075e-01 5.956993e-01
    outer loop
      vertex 4.450000e-02 -8.314696e-03 -5.555702e-03
      vertex 8.445000e-01 -7.730105e-03 -6.343933e-03
      vertex 4.450000e-02 -7.730105e-03 -6.343933e-03
    endloop
  endfacet
  facet normal -0.000000e+00 8.032075e-01 5.956993e-01
    outer loop
      vertex 4.450000e-02 -8.314696e-03 -5.555702e-03
      vertex 8.445000e-01 -8.314696e-03 -5.555702e-03
      vertex 8.445000e-01 -7.730105e-03 -6.343933e-03
    endloop
  endfacet
  facet normal 0.000000e+00 7.409511e-01 6.715590e-01
    outer loop
      vertex 4.450000e-02 -7.730105e-03 -6.343933e-03
      vertex 8.445000e-01 -7.071068e-03 -7.071068e-03
      vertex 4.450000e-02 -7.071068e-03 -7.071068e-03
    endloop
  endfacet
  facet normal -0.000000e+00 7.409511e-01 6.715590e-01
    outer loop
      vertex 4.450000e-02 -7.730105e-03 -6.343933e-03
      vertex 8.445000e-01 -7.730105e-03 -6.343933e-03
      vertex 8.445000e-01 -7.071068e-03 -7.071068e-03
    endloop
  endfacet
  facet normal 0.000000e+00 6.715590e-01 7.409511e-01
    outer loop
      vertex 4.450000e-02 -7.071068e-03 -7.071068e-03
      vertex 8.445000e-01 -6.343933e-03 -7.730105e-03
      vertex 4.450000e-02 -6.343933e-03 -7.730105e-03
    endloop
  endfacet
  facet normal -0.000000e+00 6.715590e-01 7.409511e-01
    outer loop
      vertex 4.450000e-02 -7.071068e-03 -7.071068e-03
      vertex 8.445000e-01 -7.071068e-03 -7.071068e-03
      vertex 8.445000e-01 -6.343933e-03 -7.730105e-03
    endloop
  endfacet
  facet normal 0.000000e+00 5.956993e-01 8.032075e-01
    outer loop
      vertex 4.450000e-02 -6.343933e-03 -7.730105e-03
      vertex 8.445000e-01 -5.555702e-03 -8.314696e-03
      vertex 4.450000e-02 -5.555702e-03 -8.314696e-03
    endloop
  endfacet
  facet normal -0.000000e+00 5.956993e-01 8.032075e-01
    outer loop
      vertex 4.450000e-02 -6.343933e-03 -7.730105e-03
      vertex 8.445000e-01 -6.343933e-03 -7.730105e-03
      vertex 8.445000e-01 -5.555702e-03 -8.314696e-03
    endloop
  endfacet
  facet normal 0.000000e+00 5.141027e-01 8.577286e-01
    outer loop
      vertex 4.450000e-02 -5.555702e-03 -8.314696e-03
      vertex 8.445000e-01 -4.713967e-03 -8.819213e-03
      vertex 4.450000e-02 -4.713967e-03 -8.819213e-03
    endloop
  endfacet
  facet normal -0.000000e+00 5.141027e-01 8.577286e-01
    outer loop
      vertex 4.450000e-02 -5.555702e-03 -8.314696e-03
      vertex 8.445000e-01 -5.555702e-03 -8.314696e-03
      vertex 8.445000e-01 -4.713967e-03 -8.819213e-03
    endloop
  endfacet
  facet normal 0.000000e+00 4.275551e-01 9.039893e-01
    outer loop
      vertex 4.450000e-02 -4.713967e-03 -8.819213e-03
      vertex 8.445000e-01 -3.826834e-03 -9.238795e-03
      vertex 4.450000e-02 -3.826834e-03 -9.238795e-03
    endloop
  endfacet
  facet normal -0.000000e+00 4.275551e-01 9.039893e-01
    outer loop
      vertex 4.450000e-02 -4.713967e-03 -8.819213e-03
      vertex 8.445000e-01 -4.713967e-03 -8.819213e-03
      vertex 8.445000e-01 -3.826834e-03 -9.238795e-03
    endloop
  endfacet
  facet normal 0.000000e+00 3.368899e-01 9.415441e-01
    outer loop
      vertex 4.450000e-02 -3.826834e-03 -9.238795e-03
      vertex 8.445000e-01 -2.902847e-03 -9.569403e-03
      vertex 4.450000e-02 -2.902847e-03 -9.569403e-03
    endloop
  endfacet
  facet normal -0.000000e+00 3.368899e-01 9.415441e-01
    outer loop
      vertex 4.450000e-02 -3.826834e-03 -9.238795e-03
      vertex 8.445000e-01 -3.826834e-03 -9.238795e-03
      vertex 8.445000e-01 -2.902847e-03 -9.569403e-03
    endloop
  endfacet
  facet normal 0.000000e+00 2.429802e-01 9.700313e-01
    outer loop
      vertex 4.450000e-02 -2.902847e-03 -9.569403e-03
      vertex 8.445000e-01 -1.950903e-03 -9.807853e-03
      vertex 4.450000e-02 -1.950903e-03 -9.807853e-03
    endloop
  endfacet
  facet normal -0.000000e+00 2.429802e-01 9.700313e-01
    outer loop
      vertex 4.450000e-02 -2.902847e-03 -9.569403e-03
      vertex 8.445000e-01 -2.902847e-03 -9.569403e-03
      vertex 8.445000e-01 -1.950903e-03 -9.807853e-03
    endloop
  endfacet
  facet normal 0.000000e+00 1.467305e-01 9.891765e-01
    outer loop
      vertex 4.450000e-02 -1.950903e-03 -9.807853e-03
      vertex 8.445000e-01 -9.801714e-04 -9.951847e-03
      vertex 4.450000e-02 -9.801714e-04 -9.951847e-03
    endloop
  endfacet
  facet normal -0.000000e+00 1.467305e-01 9.891765e-01
    outer loop
      vertex 4.450000e-02 -1.950903e-03 -9.807853e-03
      vertex 8.445000e-01 -1.950903e-03 -9.807853e-03
      vertex 8.445000e-01 -9.801714e-04 -9.951847e-03
    endloop
  endfacet
  facet normal 0.000000e+00 4.906767e-02 9.987955e-01
    outer loop
      vertex 4.450000e-02 -9.801714e-04 -9.951847e-03
      vertex 8.445000e-01 -1.836970e-18 -1.000000e-02
      vertex 4.450000e-02 -1.836970e-18 -1.000000e-02
    endloop
  endfacet
  facet normal -0.000000e+00 4.906767e-02 9.987955e-01
    outer loop
      vertex 4.450000e-02 -9.801714e-04 -9.951847e-03
      vertex 8.445000e-01 -9.801714e-04 -9.951847e-03
      vertex 8.445000e-01 -1.836970e-18 -1.000000e-02
    endloop
  endfacet
  facet normal 0.000000e+00 -4.906767e-02 9.987955e-01
    outer loop
      vertex 4.450000e-02 -1.836970e-18 -1.000000e-02
      vertex 8.445000e-01 9.801714e-04 -9.951847e-03
      vertex 4.450000e-02 9.801714e-04 -9.951847e-03
    endloop
  endfacet
  facet normal 0.000000e+00 -4.906767e-02 9.987955e-01
    outer loop
      vertex 4.450000e-02 -1.836970e-18 -1.000000e-02
      vertex 8.445000e-01 -1.836970e-18 -1.000000e-02
      vertex 8.445000e-01 9.801714e-04 -9.951847e-03
    endloop
  endfacet
  facet normal 0.000000e+00 -1.467305e-01 9.891765e-01
    outer loop
      vertex 4.450000e-02 9.801714e-04 -9.951847e-03
      vertex 8.445000e-01 1.950903e-03 -9.807853e-03
      vertex 4.450000e-02 1.950903e-03 -9.807853e-03
    endloop
  endfacet
  facet normal 0.000000e+00 -1.467305e-01 9.891765e-01
    outer loop
      vertex 4.450000e-02 9.801714e-04 -9.951847e-03
      vertex 8.445000e-01 9.801714e-04 -9.951847e-03
      vertex 8.445000e-01 1.950903e-03 -9.807853e-03
    endloop
  endfacet
  facet normal 0.000000e+00 -2.429802e-01 9.700313e-01
    outer loop
      vertex 4.450000e-02 1.950903e-03 -9.807853e-03
      vertex 8.445000e-01 2.902847e-03 -9.569403e-03
      vertex 4.450000e-02 2.902847e-03 -9.569403e-03
    endloop
  endfacet
  facet normal 0.000000e+00 -2.429802e-01 9.700313e-01
    outer loop
      vertex 4.450000e-02 1.950903e-03 -9.807853e-03
      vertex 8.445000e-01 1.950903e-03 -9.807853e-03
      vertex 8.445000e-01 2.902847e-03 -9.569403e-03
    endloop
  endfacet
  facet normal 0.000000e+00 -3.368899e-01 9.415441e-01
    outer loop
      vertex 4.450000e-02 2.902847e-03 -9.569403e-03
      vertex 8.445000e-01 3.826834e-03 -9.238795e-03
      vertex 4.450000e-02 3.826834e-03 -9.238795e-03
    endloop
  endfacet
  facet normal 0.000000e+00 -3.368899e-01 9.415441e-01
    outer loop
      vertex 4.450000e-02 2.902847e-03 -9.569403e-03
      vertex 8.445000e-01 2.902847e-03 -9.569403e-03
      vertex 8.445000e-01 3.826834e-03 -9.238795e-03
    endloop
  endfacet
  facet normal 0.000000e+00 -4.275551e-01 9.039893e-01
    outer loop
      vertex 4.450000e-02 3.826834e-03 -9.238795e-03
      vertex 8.445000e-01 4.713967e-03 -8.819213e-03
      vertex 4.450000e-02 4.713967e-03 -8.819213e-03
    endloop
  endfacet
  facet normal 0.000000e+00 -4.275551e-01 9.039893e-01
    outer loop
      vertex 4.450000e-02 3.826834e-03 -9.238795e-03
      vertex 8.445000e-01 3.826834e-03 -9.238795e-03
      vertex 8.445000e-01 4.713967e-03 -8.819213e-03
    endloop
  endfacet
  facet normal 0.000000e+00 -5.141027e-01 8.577286e-01
    outer loop
      vertex 4.450000e-02 4.713967e-03 -8.819213e-03
      vertex 8.445000e-01 5.555702e-03 -8.314696e-03
      vertex 4.450000e-02 5.555702e-03 -8.314696e-03
    endloop
  endfacet
  facet normal 0.000000e+00 -5.141027e-01 8.577286e-01
    outer loop
      vertex 4.450000e-02 4.713967e-03 -8.819213e-03
      vertex 8.445000e-01 4.713967e-03 -8.819213e-03
      vertex 8.445000e-01 5.555702e-03 -8.314696e-03
    endloop
  endfacet
  facet normal 0.000000e+00 -5.956993e-01 8.032075e-01
    outer loop
      vertex 4.450000e-02 5.555702e-03 -8.314696e-03
      vertex 8.445000e-01 6.343933e-03 -7.730105e-03
      vertex 4.450000e-02 6.343933e-03 -7.730105e-03
    endloop
  endfacet
  facet normal 0.000000e+00 -5.956993e-01 8.032075e-01
    outer loop
      vertex 4.450000e-02 5.555702e-03 -8.314696e-03
      vertex 8.445000e-01 5.555702e-03 -8.314696e-03
      vertex 8.445000e-01 6.343933e-03 -7.730105e-03
    endloop
  endfacet
  facet normal 0.000000e+00 -6.715590e-01 7.409511e-01
    outer loop
      vertex 4.450000e-02 6.343933e-03 -7.730105e-03
      vertex 8.445000e-01 7.071068e-03 -7.071068e-03
      vertex 4.450000e-02 7.071068e-03 -7.071068e-03
    endloop
  endfacet
  facet normal 0.000000e+00 -6.715590e-01 7.409511e-01
    outer loop
      vertex 4.450000e-02 6.343933e-03 -7.730105e-03
      vertex 8.445000e-01 6.343933e-03 -7.730105e-03
      vertex 8.445000e-01 7.071068e-03 -7.071068e-03
    endloop
  endfacet
  facet normal 0.000000e+00 -7.409511e-01 6.715590e-01
    outer loop
      vertex 4.450000e-02 7.071068e-03 -7.071068e-03
      vertex 8.445000e-01 7.730105e-03 -6.343933e-03
      vertex 4.450000e-02 7.730105e-03 -6.343933e-03
    endloop
  endfacet
  facet normal 0.000000e+00 -7.409511e-01 6.715590e-01
    outer loop
      vertex 4.450000e-02 7.071068e-03 -7.071068e-03
      vertex 8.445000e-01 7.071068e-03 -7.071068e-03
      vertex 8.445000e-01 7.730105e-03 -6.343933e-03
    endloop
  endfacet
  facet normal 0.000000e+00 -8.032075e-01 5.956993e-01
    outer loop
      vertex 4.450000e-02 7.730105e-03 -6.343933e-03
      vertex 8.445000e-01 8.314696e-03 -5.555702e-03
      vertex 4.450000e-02 8.314696e-03 -5.555702e-03
    endloop
  endfacet
  facet normal 0.000000e+00 -8.032075e-01 5.956993e-01
    outer loop
      vertex 4.450000e-02 7.730105e-03 -6.343933e-03
      vertex 8.445000e-01 7.730105e-03 -6.343933e-03
      vertex 8.445000e-01 8.314696e-03 -5.555702e-03
    endloop
  endfacet
  facet normal 0.000000e+00 -8.577286e-01 5.141027e-01
    outer loop
      vertex 4.450000e-02 8.314696e-03 -5.555702e-03
      vertex 8.445000e-01 8.819213e-03 -4.713967e-03
      vertex 4.450000e-02 8.819213e-03 -4.713967e-03
    endloop
  endfacet
  facet normal 0.000000e+00 -8.577286e-01 5.141027e-01
    outer loop
      vertex 4.450000e-02 8.314696e-03 -5.555702e-03
      vertex 8.445000e-01 8.314696e-03 -5.555702e-03
      vertex 8.445000e-01 8.819213e-03 -4.713967e-03
    endloop
  endfacet
  facet normal 0.000000e+00 -9.039893e-01 4.275551e-01
    outer loop
      vertex 4.450000e-02 8.819213e-03 -4.713967e-03
      vertex 8.445000e-01 9.238795e-03 -3.826834e-03
      vertex 4.450000e-02 9.238795e-03 -3.826834e-03
    endloop
  endfacet
  facet normal 0.000000e+00 -9.039893e-01 4.275551e-01
    outer loop
      vertex 4.450000e-02 8.819213e-03 -4.713967e-03
      vertex 8.445000e-01 8.819213e-03 -4.713967e-03
      vertex 8.445000e-01 9.238795e-03 -3.826834e-03
    endloop
  endfacet
  facet normal 0.000000e+00 -9.415441e-01 3.368899e-01
    outer loop
      vertex 4.450000e-02 9.238795e-03 -3.826834e-03
      vertex 8.445000e-01 9.569403e-03 -2.902847e-03
      vertex 4.450000e-02 9.569403e-03 -2.902847e-03
    endloop
  endfacet
  facet normal 0.000000e+00 -9.415441e-01 3.368899e-01
    outer loop
      vertex 4.450000e-02 9.238795e-03 -3.826834e-03
      vertex 8.445000e-01 9.238795e-03 -3.826834e-03
      vertex 8.445000e-01 9.569403e-03 -2.902847e-03
    endloop
  endfacet
  facet normal 0.000000e+00 -9.700313e-01 2.429802e-01
    outer loop
      vertex 4.450000e-02 9.569403e-03 -2.902847e-03
      vertex 8.445000e-01 9.807853e-03 -1.950903e-03
      vertex 4.450000e-02 9.807853e-03 -1.950903e-03
    endloop
  endfacet
  facet normal 0.000000e+00 -9.700313e-01 2.429802e-01
    outer loop
      vertex 4.450000e-02 9.569403e-03 -2.902847e-03
      vertex 8.445000e-01 9.569403e-03 -2.902847e-03
      vertex 8.445000e-01 9.807853e-03 -1.950903e-03
    endloop
  endfacet
  facet normal 0.000000e+00 -9.891765e-01 1.467305e-01
    outer loop
      vertex 4.450000e-02 9.807853e-03 -1.950903e-03
      vertex 8.445000e-01 9.951847e-03 -9.801714e-04
      vertex 4.450000e-02 9.951847e-03 -9.801714e-04
    endloop
  endfacet
  facet normal 0.000000e+00 -9.891765e-01 1.467305e-01
    outer loop
      vertex 4.450000e-02 9.807853e-03 -1.950903e-03
      vertex 8.445000e-01 9.807853e-03 -1.950903e-03
      vertex 8.445000e-01 9.951847e-03 -9.801714e-04
    endloop
  endfacet
  facet normal 0.000000e+00 -9.987955e-01 4.906767e-02
    outer loop
      vertex 4.450000e-02 9.951847e-03 -9.801714e-04
      vertex 8.445000e-01 1.000000e-02 -2.449294e-18
      vertex 4.450000e-02 1.000000e-02 -2.449294e-18
    endloop
  endfacet
  facet normal 0.000000e+00 -9.987955e-01 4.906767e-02
    outer loop
      vertex 4.450000e-02 9.951847e-03 -9.801714e-04
      vertex 8.445000e-01 9.951847e-03 -9.801714e-04
      vertex 8.445000e-01 1.000000e-02 -2.449294e-18
    endloop
  endfacet
  facet normal 1.000000e+00 0.000000e+00 0.000000e+00
    outer loop
      vertex 4.450000e-02 0.000000e+00 0.000000e+00
      vertex 4.450000e-02 1.000000e-02 0.000000e+00
      vertex 4.450000e-02 9.951847e-03 9.801714e-04
    endloop
  endfacet
  facet normal 1.000000e+00 0.000000e+00 0.000000e+00
    outer loop
      vertex 4.450000e-02 0.000000e+00 0.000000e+00
      vertex 4.450000e-02 9.951847e-03 9.801714e-04
      vertex 4.450000e-02 9.807853e-03 1.950903e-03
    endloop
  endfacet
  facet normal 1.000000e+00 0.000000e+00 0.000000e+00
    outer loop
      vertex 4.450000e-02 0.000000e+00 0.000000e+00
      vertex 4.450000e-02 9.807853e-03 1.950903e-03
      vertex 4.450000e-02 9.569403e-03 2.902847e-03
    endloop
  endfacet
  facet normal 1.000000e+00 0.000000e+00 0.000000e+00
    outer loop
      vertex 4.450000e-02 0.000000e+00 0.000000e+00
      vertex 4.450000e-02 9.569403e-03 2.902847e-03
      vertex 4.450000e-02 9.238795e-03 3.826834e-03
    endloop
  endfacet
  facet normal 1.000000e+00 0.000000e+00 0.000000e+00
    outer loop
      vertex 4.450000e-02 0.000000e+00 0.000000e+00
      vertex 4.450000e-02 9.238795e-03 3.826834e-03
      vertex 4.450000e-02 8.819213e-03 4.713967e-03
    endloop
  endfacet
  facet normal 1.000000e+00 0.000000e+00 0.000000e+00
    outer loop
      vertex 4.450000e-02 0.000000e+00 0.000000e+00
      vertex 4.450000e-02 8.819213e-03 4.713967e-03
      vertex 4.450000e-02 8.314696e-03 5.555702e-03
    endloop
  endfacet
  facet normal 1.000000e+00 0.000000e+00 0.000000e+00
    outer loop
      vertex 4.450000e-02 0.000000e+00 0.000000e+00
      vertex 4.450000e-02 8.314696e-03 5.555702e-03
      vertex 4.450000e-02 7.730105e-03 6.343933e-03
    endloop
  endfacet
  facet normal 1.000000e+00 0.000000e+00 0.000000e+00
    outer loop
      vertex 4.450000e-02 0.000000e+00 0.000000e+00
      vertex 4.450000e-02 7.730105e-03 6.343933e-03
      vertex 4.450000e-02 7.071068e-03 7.071068e-03
    endloop
  endfacet
  facet normal 1.000000e+00 0.000000e+00 0.000000e+00
    outer loop
      vertex 4.450000e-02 0.000000e+00 0.000000e+00
      vertex 4.450000e-02 7.071068e-03 7.071068e-03
      vertex 4.450000e-02 6.343933e-03 7.730105e-03
    endloop
  endfacet
  facet normal 1.000000e+00 0.000000e+00 0.000000e+00
    outer loop
      vertex 4.450000e-02 0.000000e+00 0.000000e+00
      vertex 4.450000e-02 6.343933e-03 7.730105e-03
      vertex 4.450000e-02 5.555702e-03 8.314696e-03
    endloop
  endfacet
  facet normal 1.000000e+00 0.000000e+00 0.000000e+00
    outer loop
      vertex 4.450000e-02 0.000000e+00 0.000000e+00
      vertex 4.450000e-02 5.555702e-03 8.314696e-03
      vertex 4.450000e-02 4.713967e-03 8.819213e-03
    endloop
  endfacet
  facet normal 1.000000e+00 0.000000e+00 0.000000e+00
    outer loop
      vertex 4.450000e-02 0.000000e+00 0.000000e+00
      vertex 4.450000e-02 4.713967e-03 8.819213e-03
      vertex 4.450000e-02 3.826834e-03 9.238795e-03
    endloop
  endfacet
  facet normal 1.000000e+00 0.000000e+00 0.000000e+00
    outer loop
      vertex 4.450000e-02 0.000000e+00 0.000000e+00
      vertex 4.450000e-02 3.826834e-03 9.238795e-03
      vertex 4.450000e-02 2.902847e-03 9.569403e-03
    endloop
  endfacet
  facet normal 1.000000e+00 0.000000e+00 0.000000e+00
    outer loop
      vertex 4.450000e-02 0.000000e+00 0.000000e+00
      vertex 4.450000e-02 2.902847e-03 9.569403e-03
      vertex 4.450000e-02 1.950903e-03 9.807853e-03
    endloop
  endfacet
  facet normal 1.000000e+00 0.000000e+00 0.000000e+00
    outer loop
      vertex 4.450000e-02 0.000000e+00 0.000000e+00
      vertex 4.450000e-02 1.950903e-03 9.807853e-03
      vertex 4.450000e-02 9.801714e-04 9.951847e-03
    endloop
  endfacet
  facet normal 1.000000e+00 0.000000e+00 0.000000e+00
    outer loop
      vertex 4.450000e-02 0.000000e+00 0.000000e+00
      vertex 4.450000e-02 9.801714e-04 9.951847e-03
      vertex 4.450000e-02 6.123234e-19 1.000000e-02
    endloop
  endfacet
  facet normal 1.000000e+00 0.000000e+00 -0.000000e+00
    outer loop
      vertex 4.450000e-02 0.000000e+00 0.000000e+00
      vertex 4.450000e-02 6.123234e-19 1.000000e-02
      vertex 4.450000e-02 -9.801714e-04 9.951847e-03
    endloop
  endfacet
  facet normal 1.000000e+00 0.000000e+00 0.000000e+00
    outer loop
      vertex 4.450000e-02 0.000000e+00 0.000000e+00
      vertex 4.450000e-02 -9.801714e-04 9.951847e-03
      vertex 4.450000e-02 -1.950903e-03 9.807853e-03
    endloop
  endfacet
  facet normal 1.000000e+00 0.000000e+00 0.000000e+00
    outer loop
      vertex 4.450000e-02 0.000000e+00 0.000000e+00
      vertex 4.450000e-02 -1.950903e-03 9.807853e-03
      vertex 4.450000e-02 -2.902847e-03 9.569403e-03
    endloop
  endfacet
  facet normal 1.000000e+00 0.000000e+00 0.000000e+00
    outer loop
      vertex 4.450000e-02 0.000000e+00 0.000000e+00
      vertex 4.450000e-02 -2.902847e-03 9.569403e-03
      vertex 4.450000e-02 -3.826834e-03 9.238795e-03
    endloop
  endfacet
  facet normal 1.000000e+00 0.000000e+00 0.000000e+00
    outer loop
      vertex 4.450000e-02 0.000000e+00 0.000000e+00
      vertex 4.450000e-02 -3.826834e-03 9.238795e-03
      vertex 4.450000e-02 -4.713967e-03 8.819213e-03
    endloop
  endfacet
  facet normal 1.000000e+00 0.000000e+00 0.000000e+00
    outer loop
      vertex 4.450000e-02 0.000000e+00 0.000000e+00
      vertex 4.450000e-02 -4.713967e-03 8.819213e-03
      vertex 4.450000e-02 -5.555702e-03 8.314696e-03
    endloop
  endfacet
  facet normal 1.000000e+00 0.000000e+00 0.000000e+00
    outer loop
      vertex 4.450000e-02 0.000000e+00 0.000000e+00
      vertex 4.450000e-02 -5.555702e-03 8.314696e-03
      vertex 4.450000e-02 -6.343933e-03 7.730105e-03
    endloop
  endfacet
  facet normal 1.000000e+00 0.000000e+00 0.000000e+00
    outer loop
      vertex 4.450000e-02 0.000000e+00 0.000000e+00
      vertex 4.450000e-02 -6.343933e-03 7.730105e-03
      vertex 4.450000e-02 -7.071068e-03 7.071068e-03
    endloop
  endfacet
  facet normal 1.000000e+00 0.000000e+00 0.000000e+00
    outer loop
      vertex 4.450000e-02 0.000000e+00 0.000000e+00
      vertex 4.450000e-02 -7.071068e-03 7.071068e-03
      vertex 4.450000e-02 -7.730105e-03 6.343933e-03
    endloop
  endfacet
  facet normal 1.000000e+00 0.000000e+00 0.000000e+00
    outer loop
      vertex 4.450000e-02 0.000000e+00 0.000000e+00
      vertex 4.450000e-02 -7.730105e-03 6.343933e-03
      vertex 4.450000e-02 -8.314696e-03 5.555702e-03
    endloop
  endfacet
  facet normal 1.000000e+00 0.000000e+00 0.000000e+00
    outer loop
      vertex 4.450000e-02 0.000000e+00 0.000000e+00
      vertex 4.450000e-02 -8.314696e-03 5.555702e-03
      vertex 4.450000e-02 -8.819213e-03 4.713967e-03
    endloop
  endfacet
  facet normal 1.000000e+00 0.000000e+00 0.000000e+00
    outer loop
      vertex 4.450000e-02 0.000000e+00 0.000000e+00
      vertex 4.450000e-02 -8.819213e-03 4.713967e-03
      vertex 4.450000e-02 -9.238795e-03 3.826834e-03
    endloop
  endfacet
  facet normal 1.000000e+00 0.000000e+00 0.000000e+00
    outer loop
      vertex 4.450000e-02 0.000000e+00 0.000000e+00
      vertex 4.450000e-02 -9.238795e-03 3.826834e-03
      vertex 4.450000e-02 -9.569403e-03 2.902847e-03
    endloop
  endfacet
  facet normal 1.000000e+00 0.000000e+00 0.000000e+00
    outer loop
      vertex 4.450000e-02 0.000000e+00 0.000000e+00
      vertex 4.450000e-02 -9.569403e-03 2.902847e-03
      vertex 4.450000e-02 -9.807853e-03 1.950903e-03
    endloop
  endfacet
  facet normal 1.000000e+00 0.000000e+00 0.000000e+00
    outer loop
      vertex 4.450000e-02 0.000000e+00 0.000000e+00
      vertex 4.450000e-02 -9.807853e-03 1.950903e-03
      vertex 4.450000e-02 -9.951847e-03 9.801714e-04
    endloop
  endfacet
  facet normal 1.000000e+00 0.000000e+00 0.000000e+00
    outer loop
      vertex 4.450000e-02 0.000000e+00 0.000000e+00
      vertex 4.450000e-02 -9.951847e-03 9.801714e-04
      vertex 4.450000e-02 -1.000000e-02 1.224647e-18
    endloop
  endfacet
  facet normal 1.000000e+00 0.000000e+00 0.000000e+00
    outer loop
      vertex 4.450000e-02 0.000000e+00 0.000000e+00
      vertex 4.450000e-02 -1.000000e-02 1.224647e-18
      vertex 4.450000e-02 -9.951847e-03 -9.801714e-04
    endloop
  endfacet
  facet normal 1.000000e+00 0.000000e+00 0.000000e+00
    outer loop
      vertex 4.450000e-02 0.000000e+00 0.000000e+00
      vertex 4.450000e-02 -9.951847e-03 -9.801714e-04
      vertex 4.450000e-02 -9.807853e-03 -1.950903e-03
    endloop
  endfacet
  facet normal 1.000000e+00 0.000000e+00 0.000000e+00
    outer loop
      vertex 4.450000e-02 0.000000e+00 0.000000e+00
      vertex 4.450000e-02 -9.807853e-03 -1.950903e-03
      vertex 4.450000e-02 -9.569403e-03 -2.902847e-03
    endloop
  endfacet
  facet normal 1.000000e+00 0.000000e+00 0.000000e+00
    outer loop
      vertex 4.450000e-02 0.000000e+00 0.000000e+00
      vertex 4.450000e-02 -9.569403e-03 -2.902847e-03
      vertex 4.450000e-02 -9.238795e-03 -3.826834e-03
    endloop
  endfacet
  facet normal 1.000000e+00 0.000000e+00 0.000000e+00
    outer loop
      vertex 4.450000e-02 0.000000e+00 0.000000e+00
      vertex 4.450000e-02 -9.238795e-03 -3.826834e-03
      vertex 4.450000e-02 -8.819213e-03 -4.713967e-03
    endloop
  endfacet
  facet normal 1.000000e+00 0.000000e+00 0.000000e+00
    outer loop
      vertex 4.450000e-02 0.000000e+00 0.000000e+00
      vertex 4.450000e-02 -8.819213e-03 -4.713967e-03
      vertex 4.450000e-02 -8.314696e-03 -5.555702e-03
    endloop
  endfacet
  facet normal 1.000000e+00 0.000000e+00 0.000000e+00
    outer loop
      vertex 4.450000e-02 0.000000e+00 0.000000e+00
      vertex 4.450000e-02 -8.314696e-03 -5.555702e-03
      vertex 4.450000e-02 -7.730105e-03 -6.343933e-03
    endloop
  endfacet
  facet normal 1.000000e+00 0.000000e+00 0.000000e+00
    outer loop
      vertex 4.450000e-02 0.000000e+00 0.000000e+00
      vertex 4.450000e-02 -7.730105e-03 -6.343933e-03
      vertex 4.450000e-02 -7.071068e-03 -7.071068e-03
    endloop
  endfacet
  facet normal 1.000000e+00 0.000000e+00 0.000000e+00
    outer loop
      vertex 4.450000e-02 0.000000e+00 0.000000e+00
      vertex 4.450000e-02 -7.071068e-03 -7.071068e-03
      vertex 4.450000e-02 -6.343933e-03 -7.730105e-03
    endloop
  endfacet
  facet normal 1.000000e+00 0.000000e+00 0.000000e+00
    outer loop
      vertex 4.450000e-02 0.000000e+00 0.000000e+00
      vertex 4.450000e-02 -6.343933e-03 -7.730105e-03
      vertex 4.450000e-02 -5.555702e-03 -8.314696e-03
    endloop
  endfacet
  facet normal 1.000000e+00 0.000000e+00 0.000000e+00
    outer loop
      vertex 4.450000e-02 0.000000e+00 0.000000e+00
      vertex 4.450000e-02 -5.555702e-03 -8.314696e-03
      vertex 4.450000e-02 -4.713967e-03 -8.819213e-03
    endloop
  endfacet
  facet normal 1.000000e+00 0.000000e+00 0.000000e+00
    outer loop
      vertex 4.450000e-02 0.000000e+00 0.000000e+00
      vertex 4.450000e-02 -4.713967e-03 -8.819213e-03
      vertex 4.450000e-02 -3.826834e-03 -9.238795e-03
    endloop
  endfacet
  facet normal 1.000000e+00 0.000000e+00 0.000000e+00
    outer loop
      vertex 4.450000e-02 0.000000e+00 0.000000e+00
      vertex 4.450000e-02 -3.826834e-03 -9.238795e-03
      vertex 4.450000e-02 -2.902847e-03 -9.569403e-03
    endloop
  endfacet
  facet normal 1.000000e+00 0.000000e+00 0.000000e+00
    outer loop
      vertex 4.450000e-02 0.000000e+00 0.000000e+00
      vertex 4.450000e-02 -2.902847e-03 -9.569403e-03
      vertex 4.450000e-02 -1.950903e-03 -9.807853e-03
    endloop
  endfacet
  facet normal 1.000000e+00 0.000000e+00 0.000000e+00
    outer loop
      vertex 4.450000e-02 0.000000e+00 0.000000e+00
      vertex 4.450000e-02 -1.950903e-03 -9.807853e-03
      vertex 4.450000e-02 -9.801714e-04 -9.951847e-03
    endloop
  endfacet
  facet normal 1.000000e+00 0.000000e+00 0.000000e+00
    outer loop
      vertex 4.450000e-02 0.000000e+00 0.000000e+00
      vertex 4.450000e-02 -9.801714e-04 -9.951847e-03
      vertex 4.450000e-02 -1.836970e-18 -1.000000e-02
    endloop
  endfacet
  facet normal 1.000000e+00 0.000000e+00 0.000000e+00
    outer loop
      vertex 4.450000e-02 0.000000e+00 0.000000e+00
      vertex 4.450000e-02 -1.836970e-18 -1.000000e-02
      vertex 4.450000e-02 9.801714e-04 -9.951847e-03
    endloop
  endfacet
  facet normal 1.000000e+00 0.000000e+00 0.000000e+00
    outer loop
      vertex 4.450000e-02 0.000000e+00 0.000000e+00
      vertex 4.450000e-02 9.801714e-04 -9.951847e-03
      vertex 4.450000e-02 1.950903e-03 -9.807853e-03
    endloop
  endfacet
  facet normal 1.000000e+00 0.000000e+00 0.000000e+00
    outer loop
      vertex 4.450000e-02 0.000000e+00 0.000000e+00
      vertex 4.450000e-02 1.950903e-03 -9.807853e-03
      vertex 4.450000e-02 2.902847e-03 -9.569403e-03
    endloop
  endfacet
  facet normal 1.000000e+00 0.000000e+00 0.000000e+00
    outer loop
      vertex 4.450000e-02 0.000000e+00 0.000000e+00
      vertex 4.450000e-02 2.902847e-03 -9.569403e-03
      vertex 4.450000e-02 3.826834e-03 -9.238795e-03
    endloop
  endfacet
  facet normal 1.000000e+00 0.000000e+00 0.000000e+00
    outer loop
      vertex 4.450000e-02 0.000000e+00 0.000000e+00
      vertex 4.450000e-02 3.826834e-03 -9.238795e-03
      vertex 4.450000e-02 4.713967e-03 -8.819213e-03
    endloop
  endfacet
  facet normal 1.000000e+00 0.000000e+00 0.000000e+00
    outer loop
      vertex 4.450000e-02 0.000000e+00 0.000000e+00
      vertex 4.450000e-02 4.713967e-03 -8.819213e-03
      vertex 4.450000e-02 5.555702e-03 -8.314696e-03
    endloop
  endfacet
  facet normal 1.000000e+00 0.000000e+00 0.000000e+00
    outer loop
      vertex 4.450000e-02 0.000000e+00 0.000000e+00
      vertex 4.450000e-02 5.555702e-03 -8.314696e-03
      vertex 4.450000e-02 6.343933e-03 -7.730105e-03
    endloop
  endfacet
  facet normal 1.000000e+00 0.000000e+00 0.000000e+00
    outer loop
      vertex 4.450000e-02 0.000000e+00 0.000000e+00
      vertex 4.450000e-02 6.343933e-03 -7.730105e-03
      vertex 4.450000e-02 7.071068e-03 -7.071068e-03
    endloop
  endfacet
  facet normal 1.000000e+00 0.000000e+00 0.000000e+00
    outer loop
      vertex 4.450000e-02 0.000000e+00 0.000000e+00
      vertex 4.450000e-02 7.071068e-03 -7.071068e-03
      vertex 4.450000e-02 7.730105e-03 -6.343933e-03
    endloop
  endfacet
  facet normal 1.000000e+00 0.000000e+00 0.000000e+00
    outer loop
      vertex 4.450000e-02 0.000000e+00 0.000000e+00
      vertex 4.450000e-02 7.730105e-03 -6.343933e-03
      vertex 4.450000e-02 8.314696e-03 -5.555702e-03
    endloop
  endfacet
  facet normal 1.000000e+00 0.000000e+00 0.000000e+00
    outer loop
      vertex 4.450000e-02 0.000000e+00 0.000000e+00
      vertex 4.450000e-02 8.314696e-03 -5.555702e-03
      vertex 4.450000e-02 8.819213e-03 -4.713967e-03
    endloop
  endfacet
  facet normal 1.000000e+00 0.000000e+00 0.000000e+00
    outer loop
      vertex 4.450000e-02 0.000000e+00 0.000000e+00
      vertex 4.450000e-02 8.819213e-03 -4.713967e-03
      vertex 4.450000e-02 9.238795e-03 -3.826834e-03
    endloop
  endfacet
  facet normal 1.000000e+00 0.000000e+00 0.000000e+00
    outer loop
      vertex 4.450000e-02 0.000000e+00 0.000000e+00
      vertex 4.450000e-02 9.238795e-03 -3.826834e-03
      vertex 4.450000e-02 9.569403e-03 -2.902847e-03
    endloop
  endfacet
  facet normal 1.000000e+00 0.000000e+00 0.000000e+00
    outer loop
      vertex 4.450000e-02 0.000000e+00 0.000000e+00
      vertex 4.450000e-02 9.569403e-03 -2.902847e-03
      vertex 4.450000e-02 9.807853e-03 -1.950903e-03
    endloop
  endfacet
  facet normal 1.000000e+00 0.000000e+00 0.000000e+00
    outer loop
      vertex 4.450000e-02 0.000000e+00 0.000000e+00
      vertex 4.450000e-02 9.807853e-03 -1.950903e-03
      vertex 4.450000e-02 9.951847e-03 -9.801714e-04
    endloop
  endfacet
  facet normal 1.000000e+00 0.000000e+00 0.000000e+00
    outer loop
      vertex 4.450000e-02 0.000000e+00 0.000000e+00
      vertex 4.450000e-02 9.951847e-03 -9.801714e-04
      vertex 4.450000e-02 1.000000e-02 -2.449294e-18
    endloop
  endfacet
  facet normal -1.000000e+00 0.000000e+00 0.000000e+00
    outer loop
      vertex 8.445000e-01 0.000000e+00 0.000000e+00
      vertex 8.445000e-01 9.951847e-03 9.801714e-04
      vertex 8.445000e-01 1.000000e-02 0.000000e+00
    endloop
  endfacet
  facet normal -1.000000e+00 0.000000e+00 0.000000e+00
    outer loop
      vertex 8.445000e-01 0.000000e+00 0.000000e+00
      vertex 8.445000e-01 9.807853e-03 1.950903e-03
      vertex 8.445000e-01 9.951847e-03 9.801714e-04
    endloop
  endfacet
  facet normal -1.000000e+00 0.000000e+00 0.000000e+00
    outer loop
      vertex 8.445000e-01 0.000000e+00 0.000000e+00
      vertex 8.445000e-01 9.569403e-03 2.902847e-03
      vertex 8.445000e-01 9.807853e-03 1.950903e-03
    endloop
  endfacet
  facet normal -1.000000e+00 0.000000e+00 0.000000e+00
    outer loop
      vertex 8.445000e-01 0.000000e+00 0.000000e+00
      vertex 8.445000e-01 9.238795e-03 3.826834e-03
      vertex 8.445000e-01 9.569403e-03 2.902847e-03
    endloop
  endfacet
  facet normal -1.000000e+00 0.000000e+00 0.000000e+00
    outer loop
      vertex 8.445000e-01 0.000000e+00 0.000000e+00
      vertex 8.445000e-01 8.819213e-03 4.713967e-03
      vertex 8.445000e-01 9.238795e-03 3.826834e-03
    endloop
  endfacet
  facet normal -1.000000e+00 0.000000e+00 0.000000e+00
    outer loop
      vertex 8.445000e-01 0.000000e+00 0.000000e+00
      vertex 8.445000e-01 8.314696e-03 5.555702e-03
      vertex 8.445000e-01 8.819213e-03 4.713967e-03
    endloop
  endfacet
  facet normal -1.000000e+00 0.000000e+00 0.000000e+00
    outer loop
      vertex 8.445000e-01 0.000000e+00 0.000000e+00
      vertex 8.445000e-01 7.730105e-03 6.343933e-03
      vertex 8.445000e-01 8.314696e-03 5.555702e-03
    endloop
  endfacet
  facet normal -1.000000e+00 0.000000e+00 0.000000e+00
    outer loop
      vertex 8.445000e-01 0.000000e+00 0.000000e+00
      vertex 8.445000e-01 7.071068e-03 7.071068e-03
      vertex 8.445000e-01 7.730105e-03 6.343933e-03
    endloop
  endfacet
  facet normal -1.000000e+00 0.000000e+00 0.000000e+00
    outer loop
      vertex 8.445000e-01 0.000000e+00 0.000000e+00
      vertex 8.445000e-01 6.343933e-03 7.730105e-03
      vertex 8.445000e-01 7.071068e-03 7.071068e-03
    endloop
  endfacet
  facet normal -1.000000e+00 0.000000e+00 0.000000e+00
    outer loop
      vertex 8.445000e-01 0.000000e+00 0.000000e+00
      vertex 8.445000e-01 5.555702e-03 8.314696e-03
      vertex 8.445000e-01 6.343933e-03 7.730105e-03
    endloop
  endfacet
  facet normal -1.000000e+00 0.000000e+00 0.000000e+00
    outer loop
      vertex 8.445000e-01 0.000000e+00 0.000000e+00
      vertex 8.445000e-01 4.713967e-03 8.819213e-03
      vertex 8.445000e-01 5.555702e-03 8.314696e-03
    endloop
  endfacet
  facet normal -1.000000e+00 0.000000e+00 0.000000e+00
    outer loop
      vertex 8.445000e-01 0.000000e+00 0.000000e+00
      vertex 8.445000e-01 3.826834e-03 9.238795e-03
      vertex 8.445000e-01 4.713967e-03 8.819213e-03
    endloop
  endfacet
  facet normal -1.000000e+00 0.000000e+00 0.000000e+00
    outer loop
      vertex 8.445000e-01 0.000000e+00 0.000000e+00
      vertex 8.445000e-01 2.902847e-03 9.569403e-03
      vertex 8.445000e-01 3.826834e-03 9.238795e-03
    endloop
  endfacet
  facet normal -1.000000e+00 0.000000e+00 0.000000e+00
    outer loop
      vertex 8.445000e-01 0.000000e+00 0.000000e+00
      vertex 8.445000e-01 1.950903e-03 9.807853e-03
      vertex 8.445000e-01 2.902847e-03 9.569403e-03
    endloop
  endfacet
  facet normal -1.000000e+00 0.000000e+00 0.000000e+00
    outer loop
      vertex 8.445000e-01 0.000000e+00 0.000000e+00
      vertex 8.445000e-01 9.801714e-04 9.951847e-03
      vertex 8.445000e-01 1.950903e-03 9.807853e-03
    endloop
  endfacet
  facet normal -1.000000e+00 0.000000e+00 0.000000e+00
    outer loop
      vertex 8.445000e-01 0.000000e+00 0.000000e+00
      vertex 8.445000e-01 6.123234e-19 1.000000e-02
      vertex 8.445000e-01 9.801714e-04 9.951847e-03
    endloop
  endfacet
  facet normal -1.000000e+00 0.000000e+00 0.000000e+00
    outer loop
      vertex 8.445000e-01 0.000000e+00 0.000000e+00
      vertex 8.445000e-01 -9.801714e-04 9.951847e-03
      vertex 8.445000e-01 6.123234e-19 1.000000e-02
    endloop
  endfacet
  facet normal -1.000000e+00 0.000000e+00 0.000000e+00
    outer loop
      vertex 8.445000e-01 0.000000e+00 0.000000e+00
      vertex 8.445000e-01 -1.950903e-03 9.807853e-03
      vertex 8.445000e-01 -9.801714e-04 9.951847e-03
    endloop
  endfacet
  facet normal -1.000000e+00 0.000000e+00 0.000000e+00
    outer loop
      vertex 8.445000e-01 0.000000e+00 0.000000e+00
      vertex 8.445000e-01 -2.902847e-03 9.569403e-03
      vertex 8.445000e-01 -1.950903e-03 9.807853e-03
    endloop
  endfacet
  facet normal -1.000000e+00 0.000000e+00 0.000000e+00
    outer loop
      vertex 8.445000e-01 0.000000e+00 0.000000e+00
      vertex 8.445000e-01 -3.826834e-03 9.238795e-03
      vertex 8.445000e-01 -2.902847e-03 9.569403e-03
    endloop
  endfacet
  facet normal -1.000000e+00 0.000000e+00 0.000000e+00
    outer loop
      vertex 8.445000e-01 0.000000e+00 0.000000e+00
      vertex 8.445000e-01 -4.713967e-03 8.819213e-03
      vertex 8.445000e-01 -3.826834e-03 9.238795e-03
    endloop
  endfacet
  facet normal -1.000000e+00 0.000000e+00 0.000000e+00
    outer loop
      vertex 8.445000e-01 0.000000e+00 0.000000e+00
      vertex 8.445000e-01 -5.555702e-03 8.314696e-03
      vertex 8.445000e-01 -4.713967e-03 8.819213e-03
    endloop
  endfacet
  facet normal -1.000000e+00 0.000000e+00 0.000000e+00
    outer loop
      vertex 8.445000e-01 0.000000e+00 0.000000e+00
      vertex 8.445000e-01 -6.343933e-03 7.730105e-03
      vertex 8.445000e-01 -5.555702e-03 8.314696e-03
    endloop
  endfacet
  facet normal -1.000000e+00 0.000000e+00 0.000000e+00
    outer loop
      vertex 8.445000e-01 0.000000e+00 0.000000e+00
      vertex 8.445000e-01 -7.071068e-03 7.071068e-03
      vertex 8.445000e-01 -6.343933e-03 7.730105e-03
    endloop
  endfacet
  facet normal -1.000000e+00 0.000000e+00 0.000000e+00
    outer loop
      vertex 8.445000e-01 0.000000e+00 0.000000e+00
      vertex 8.445000e-01 -7.730105e-03 6.343933e-03
      vertex 8.445000e-01 -7.071068e-03 7.071068e-03
    endloop
  endfacet
  facet normal -1.000000e+00 0.000000e+00 0.000000e+00
    outer loop
      vertex 8.445000e-01 0.000000e+00 0.000000e+00
      vertex 8.445000e-01 -8.314696e-03 5.555702e-03
      vertex 8.445000e-01 -7.730105e-03 6.343933e-03
    endloop
  endfacet
  facet normal -1.000000e+00 0.000000e+00 0.000000e+00
    outer loop
      vertex 8.445000e-01 0.000000e+00 0.000000e+00
      vertex 8.445000e-01 -8.819213e-03 4.713967e-03
      vertex 8.445000e-01 -8.314696e-03 5.555702e-03
    endloop
  endfacet
  facet normal -1.000000e+00 0.000000e+00 0.000000e+00
    outer loop
      vertex 8.445000e-01 0.000000e+00 0.000000e+00
      vertex 8.445000e-01 -9.238795e-03 3.826834e-03
      vertex 8.445000e-01 -8.819213e-03 4.713967e-03
    endloop
  endfacet
  facet normal -1.000000e+00 0.000000e+00 0.000000e+00
    outer loop
      vertex 8.445000e-01 0.000000e+00 0.000000e+00
      vertex 8.445000e-01 -9.569403e-03 2.902847e-03
      vertex 8.445000e-01 -9.238795e-03 3.826834e-03
    endloop
  endfacet
  facet normal -1.000000e+00 0.000000e+00 0.000000e+00
    outer loop
      vertex 8.445000e-01 0.000000e+00 0.000000e+00
      vertex 8.445000e-01 -9.807853e-03 1.950903e-03
      vertex 8.445000e-01 -9.569403e-03 2.902847e-03
    endloop
  endfacet
  facet normal -1.000000e+00 0.000000e+00 0.000000e+00
    outer loop
      vertex 8.445000e-01 0.000000e+00 0.000000e+00
      vertex 8.445000e-01 -9.951847e-03 9.801714e-04
      vertex 8.445000e-01 -9.807853e-03 1.950903e-03
    endloop
  endfacet
  facet normal -1.000000e+00 0.000000e+00 0.000000e+00
    outer loop
      vertex 8.445000e-01 0.000000e+00 0.000000e+00
      vertex 8.445000e-01 -1.000000e-02 1.224647e-18
      vertex 8.445000e-01 -9.951847e-03 9.801714e-04
    endloop
  endfacet
  facet normal -1.000000e+00 -0.000000e+00 0.000000e+00
    outer loop
      vertex 8.445000e-01 0.000000e+00 0.000000e+00
      vertex 8.445000e-01 -9.951847e-03 -9.801714e-04
      vertex 8.445000e-01 -1.000000e-02 1.224647e-18
    endloop
  endfacet
  facet normal -1.000000e+00 0.000000e+00 0.000000e+00
    outer loop
      vertex 8.445000e-01 0.000000e+00 0.000000e+00
      vertex 8.445000e-01 -9.807853e-03 -1.950903e-03
      vertex 8.445000e-01 -9.951847e-03 -9.801714e-04
    endloop
  endfacet
  facet normal -1.000000e+00 0.000000e+00 0.000000e+00
    outer loop
      vertex 8.445000e-01 0.000000e+00 0.000000e+00
      vertex 8.445000e-01 -9.569403e-03 -2.902847e-03
      vertex 8.445000e-01 -9.807853e-03 -1.950903e-03
    endloop
  endfacet
  facet normal -1.000000e+00 0.000000e+00 0.000000e+00
    outer loop
      vertex 8.445000e-01 0.000000e+00 0.000000e+00
      vertex 8.445000e-01 -9.238795e-03 -3.826834e-03
      vertex 8.445000e-01 -9.569403e-03 -2.902847e-03
    endloop
  endfacet
  facet normal -1.000000e+00 0.000000e+00 0.000000e+00
    outer loop
      vertex 8.445000e-01 0.000000e+00 0.000000e+00
      vertex 8.445000e-01 -8.819213e-03 -4.713967e-03
      vertex 8.445000e-01 -9.238795e-03 -3.826834e-03
    endloop
  endfacet
  facet normal -1.000000e+00 0.000000e+00 0.000000e+00
    outer loop
      vertex 8.445000e-01 0.000000e+00 0.000000e+00
      vertex 8.445000e-01 -8.314696e-03 -5.555702e-03
      vertex 8.445000e-01 -8.819213e-03 -4.713967e-03
    endloop
  endfacet
  facet normal -1.000000e+00 0.000000e+00 0.000000e+00
    outer loop
      vertex 8.445000e-01 0.000000e+00 0.000000e+00
      vertex 8.445000e-01 -7.730105e-03 -6.343933e-03
      vertex 8.445000e-01 -8.314696e-03 -5.555702e-03
    endloop
  endfacet
  facet normal -1.000000e+00 0.000000e+00 0.000000e+00
    outer loop
      vertex 8.445000e-01 0.000000e+00 0.000000e+00
      vertex 8.445000e-01 -7.071068e-03 -7.071068e-03
      vertex 8.445000e-01 -7.730105e-03 -6.343933e-03
    endloop
  endfacet
  facet normal -1.000000e+00 0.000000e+00 0.000000e+00
    outer loop
      vertex 8.445000e-01 0.000000e+00 0.000000e+00
      vertex 8.445000e-01 -6.343933e-03 -7.730105e-03
      vertex 8.445000e-01 -7.071068e-03 -7.071068e-03
    endloop
  endfacet
  facet normal -1.000000e+00 0.000000e+00 0.000000e+00
    outer loop
      vertex 8.445000e-01 0.000000e+00 0.000000e+00
      vertex 8.445000e-01 -5.555702e-03 -8.314696e-03
      vertex 8.445000e-01 -6.343933e-03 -7.730105e-03
    endloop
  endfacet
  facet normal -1.000000e+00 0.000000e+00 0.000000e+00
    outer loop
      vertex 8.445000e-01 0.000000e+00 0.000000e+00
      vertex 8.445000e-01 -4.713967e-03 -8.819213e-03
      vertex 8.445000e-01 -5.555702e-03 -8.314696e-03
    endloop
  endfacet
  facet normal -1.000000e+00 0.000000e+00 0.000000e+00
    outer loop
      vertex 8.445000e-01 0.000000e+00 0.000000e+00
      vertex 8.445000e-01 -3.826834e-03 -9.238795e-03
      vertex 8.445000e-01 -4.713967e-03 -8.819213e-03
    endloop
  endfacet
  facet normal -1.000000e+00 0.000000e+00 0.000000e+00
    outer loop
      vertex 8.445000e-01 0.000000e+00 0.000000e+00
      vertex 8.445000e-01 -2.902847e-03 -9.569403e-03
      vertex 8.445000e-01 -3.826834e-03 -9.238795e-03
    endloop
  endfacet
  facet normal -1.000000e+00 0.000000e+00 0.000000e+00
    outer loop
      vertex 8.445000e-01 0.000000e+00 0.000000e+00
      vertex 8.445000e-01 -1.950903e-03 -9.807853e-03
      vertex 8.445000e-01 -2.902847e-03 -9.569403e-03
    endloop
  endfacet
  facet normal -1.000000e+00 0.000000e+00 0.000000e+00
    outer loop
      vertex 8.445000e-01 0.000000e+00 0.000000e+00
      vertex 8.445000e-01 -9.801714e-04 -9.951847e-03
      vertex 8.445000e-01 -1.950903e-03 -9.807853e-03
    endloop
  endfacet
  facet normal -1.000000e+00 0.000000e+00 0.000000e+00
    outer loop
      vertex 8.445000e-01 0.000000e+00 0.000000e+00
      vertex 8.445000e-01 -1.836970e-18 -1.000000e-02
      vertex 8.445000e-01 -9.801714e-04 -9.951847e-03
    endloop
  endfacet
  facet normal -1.000000e+00 0.000000e+00 -0.000000e+00
    outer loop
      vertex 8.445000e-01 0.000000e+00 0.000000e+00
      vertex 8.445000e-01 9.801714e-04 -9.951847e-03
      vertex 8.445000e-01 -1.836970e-18 -1.000000e-02
    endloop
  endfacet
  facet normal -1.000000e+00 0.000000e+00 0.000000e+00
    outer loop
      vertex 8.445000e-01 0.000000e+00 0.000000e+00
      vertex 8.445000e-01 1.950903e-03 -9.807853e-03
      vertex 8.445000e-01 9.801714e-04 -9.951847e-03
    endloop
  endfacet
  facet normal -1.000000e+00 0.000000e+00 0.000000e+00
    outer loop
      vertex 8.445000e-01 0.000000e+00 0.000000e+00
      vertex 8.445000e-01 2.902847e-03 -9.569403e-03
      vertex 8.445000e-01 1.950903e-03 -9.807853e-03
    endloop
  endfacet
  facet normal -1.000000e+00 0.000000e+00 0.000000e+00
    outer loop
      vertex 8.445000e-01 0.000000e+00 0.000000e+00
      vertex 8.445000e-01 3.826834e-03 -9.238795e-03
      vertex 8.445000e-01 2.902847e-03 -9.569403e-03
    endloop
  endfacet
  facet normal -1.000000e+00 0.000000e+00 0.000000e+00
    outer loop
      vertex 8.445000e-01 0.000000e+00 0.000000e+00
      vertex 8.445000e-01 4.713967e-03 -8.819213e-03
      vertex 8.445000e-01 3.826834e-03 -9.238795e-03
    endloop
  endfacet
  facet normal -1.000000e+00 0.000000e+00 0.000000e+00
    outer loop
      vertex 8.445000e-01 0.000000e+00 0.000000e+00
      vertex 8.445000e-01 5.555702e-03 -8.314696e-03
      vertex 8.445000e-01 4.713967e-03 -8.819213e-03
    endloop
  endfacet
  facet normal -1.000000e+00 0.000000e+00 0.000000e+00
    outer loop
      vertex 8.445000e-01 0.000000e+00 0.000000e+00
      vertex 8.445000e-01 6.343933e-03 -7.730105e-03
      vertex 8.445000e-01 5.555702e-03 -8.314696e-03
    endloop
  endfacet
  facet normal -1.000000e+00 0.000000e+00 0.000000e+00
    outer loop
      vertex 8.445000e-01 0.000000e+00 0.000000e+00
      vertex 8.445000e-01 7.071068e-03 -7.071068e-03
      vertex 8.445000e-01 6.343933e-03 -7.730105e-03
    endloop
  endfacet
  facet normal -1.000000e+00 0.000000e+00 0.000000e+00
    outer loop
      vertex 8.445000e-01 0.000000e+00 0.000000e+00
      vertex 8.445000e-01 7.730105e-03 -6.343933e-03
      vertex 8.445000e-01 7.071068e-03 -7.071068e-03
    endloop
  endfacet
  facet normal -1.000000e+00 0.000000e+00 0.000000e+00
    outer loop
      vertex 8.445000e-01 0.000000e+00 0.000000e+00
      vertex 8.445000e-01 8.314696e-03 -5.555702e-03
      vertex 8.445000e-01 7.730105e-03 -6.343933e-03
    endloop
  endfacet
  facet normal -1.000000e+00 0.000000e+00 0.000000e+00
    outer loop
      vertex 8.445000e-01 0.000000e+00 0.000000e+00
      vertex 8.445000e-01 8.819213e-03 -4.713967e-03
      vertex 8.445000e-01 8.314696e-03 -5.555702e-03
    endloop
  endfacet
  facet normal -1.000000e+00 0.000000e+00 0.000000e+00
    outer loop
      vertex 8.445000e-01 0.000000e+00 0.000000e+00
      vertex 8.445000e-01 9.238795e-03 -3.826834e-03
      vertex 8.445000e-01 8.819213e-03 -4.713967e-03
    endloop
  endfacet
  facet normal -1.000000e+00 0.000000e+00 0.000000e+00
    outer loop
      vertex 8.445000e-01 0.000000e+00 0.000000e+00
      vertex 8.445000e-01 9.569403e-03 -2.902847e-03
      vertex 8.445000e-01 9.238795e-03 -3.826834e-03
    endloop
  endfacet
  facet normal -1.000000e+00 0.000000e+00 0.000000e+00
    outer loop
      vertex 8.445000e-01 0.000000e+00 0.000000e+00
      vertex 8.445000e-01 9.807853e-03 -1.950903e-03
      vertex 8.445000e-01 9.569403e-03 -2.902847e-03
    endloop
  endfacet
  facet normal -1.000000e+00 0.000000e+00 0.000000e+00
    outer loop
      vertex 8.445000e-01 0.000000e+00 0.000000e+00
      vertex 8.445000e-01 9.951847e-03 -9.801714e-04
      vertex 8.445000e-01 9.807853e-03 -1.950903e-03
    endloop
  endfacet
  facet normal -1.000000e+00 0.000000e+00 0.000000e+00
    outer loop
      vertex 8.445000e-01 0.000000e+00 0.000000e+00
      vertex 8.445000e-01 1.000000e-02 -2.449294e-18
      vertex 8.445000e-01 9.951847e-03 -9.801714e-04
    endloop
  endfacet
endsolid lampWall
